<svg xmlns="http://www.w3.org/2000/svg" width="57.819" height="49.361" viewBox="0 0 57.819 49.361">
  <path id="generate_random_orders_for_woocommerce" d="M35.7,63.133a4.672,4.672,0,0,1-4.631-3.939L28.431,42.916H64.554l-.7,4.339L67.6,48.519l.909-5.6H69.7a1.95,1.95,0,0,0,0-3.9H61.58L51.294,25.941a1.95,1.95,0,0,0-3.064,2.412l8.388,10.663H36.366l8.389-10.663a1.95,1.95,0,1,0-3.064-2.412L31.4,39.016H23.253a1.95,1.95,0,0,0,0,3.9H24.48l2.742,16.9a8.557,8.557,0,0,0,8.48,7.215H54.439l-1.313-3.9ZM77.8,55.127,54.2,47.165c-.02-.007-.04-.008-.06-.014-.058-.018-.118-.028-.178-.041a1.967,1.967,0,0,0-.2-.034c-.058-.006-.116,0-.174,0a1.943,1.943,0,0,0-.205,0c-.058.006-.116.019-.174.03a1.993,1.993,0,0,0-.2.045c-.019.006-.038.007-.057.013-.042.014-.079.037-.12.054a1.932,1.932,0,0,0-.176.08,1.9,1.9,0,0,0-.164.1c-.052.035-.1.07-.152.11s-.093.083-.137.127a1.93,1.93,0,0,0-.132.142c-.039.048-.074.1-.108.149s-.07.106-.1.163a1.975,1.975,0,0,0-.085.188c-.015.038-.037.071-.05.11-.006.017-.007.034-.012.051a1.927,1.927,0,0,0-.048.209c-.011.057-.024.113-.03.17s0,.128,0,.192,0,.129,0,.192.019.113.03.17a1.927,1.927,0,0,0,.048.209c.005.017.006.034.012.051l7.962,23.595a1.95,1.95,0,0,0,1.728,1.323c.04,0,.081,0,.121,0a1.95,1.95,0,0,0,1.756-1.1l4.784-9.938,9.938-4.784a1.95,1.95,0,0,0-.223-3.6ZM65.774,60.3c-.021.01-.037.025-.057.035a1.907,1.907,0,0,0-.19.116c-.047.032-.093.063-.137.1a1.935,1.935,0,0,0-.145.135c-.045.045-.09.09-.13.14s-.07.094-.1.143a1.932,1.932,0,0,0-.112.184c-.011.021-.026.039-.037.06l-3,6.242L56.684,52.119l15.332,5.174Z" transform="translate(-21.303 -25.197)" fill="#fff"/>
</svg>
