<?xml version="1.0" encoding="utf-8"?>
<svg width="96" height="96" viewBox="0 0 96 96" fill="none" xmlns="http://www.w3.org/2000/svg">
    <path
        d="M85.6 83.3H79.6L81.6 81.3C100.1 62.8 100.1 32.8 81.6 14.3C70.5 3.19997 54.7 -1.70003 39.3 1.29997C37.6 1.59997 36.4 3.29997 36.8 4.99997C37.1 6.69997 38.8 7.89997 40.5 7.49997C53.8 4.99997 67.5 9.19997 77.1 18.8C93.1 34.8 93.1 60.8 77.1 76.8L75.1 78.8V72.7C75.1 70.9 73.7 69.5 71.9 69.5C70.1 69.5 68.7 70.9 68.7 72.7V86.4C68.7 87.3 69.1 88.1 69.6 88.7C70.2 89.3 71 89.6 71.9 89.6H85.6C87.4 89.6 88.8 88.2 88.8 86.4C88.8 84.7 87.3 83.3 85.6 83.3Z"
        fill="#D9734D" />
    <path
        d="M55.5999 88.4C42.2999 90.9 28.6 86.7 19 77.1C2.99995 61.1 2.99995 35.1 19 19.1L21 17.1V23.1C21 24 21.4 24.8 21.9 25.4C22.5 26 23.3 26.2999 24.1 26.2999C25.9 26.2999 27.3 24.9 27.3 23.1V9.39995C27.3 7.69995 25.8 6.19995 24.1 6.19995H10.4C8.59995 6.19995 7.19995 7.59995 7.19995 9.39995C7.19995 11.2 8.59995 12.6 10.4 12.6H16.4L14.4 14.6C-4.00005 33.1 -4.00005 63.2 14.5 81.6C25.6 92.7 41.3999 97.6 56.7999 94.6C58.5 94.2999 59.7 92.6 59.2999 90.9C59 89.2 57.3999 88.1 55.5999 88.4Z"
        fill="#D9734D" />
    <path
        d="M57.2 36.7C53.5 38.9 44.7 44.9 38.1 51.5C31.2 58.4 26.4 65.8 24.8 68C23.5 69.8 24.3 72.3 26.4 73C27.9 73.5 29.5 72.8 30.2 71.4C31.3 69.2 33.3 65.7 35.9 61.8C41.1 63.5 48.1 66.2 57.6 56.9C69.5 45.3 71.5 31.1 71.9 25.5C72 24.4 71.2 23.5 70.1 23.5C64 23.2 47.6 22.9 35.3 35.1C25.9 44.4 27.5 50.5 29.3 53.2C35.9 46.1 46 40.8 57.2 36.7Z"
        fill="#D9734D" />
</svg>