<?xml version="1.0" encoding="utf-8"?>
<svg width="100" height="100" viewBox="0 0 100 100" fill="none" xmlns="http://www.w3.org/2000/svg">
    <path
        d="M48.4 57C53.3153 57 57.3 53.0153 57.3 48.1C57.3 43.1847 53.3153 39.2 48.4 39.2C43.4847 39.2 39.5 43.1847 39.5 48.1C39.5 53.0153 43.4847 57 48.4 57Z"
        fill="#D9734D" />
    <path
        d="M87.2 31.8C86.6 36.1 83.5 41.2 78.6 46.6C75.4 43.4 71.7 40.1 67.5 37.1C67 32 66.1 27.2 64.9 22.9C68.4 22.1 71.8 21.7 74.8 21.7C75.9 21.7 77 21.7 78 21.9C78.2 21.1 78.5 20.4 78.9 19.6C74.9 19 69.8 19.3 64.3 20.5C60.7 9.19998 55 2.09998 48.4 2.09998C41.8 2.09998 36.1 9.19998 32.5 20.4C21.2 18 12.1 19.3 8.79999 25C8.59999 25.3 8.49999 25.6 8.29999 25.9C8.59999 25.9 8.89999 25.7 9.19999 25.7C9.79999 25.7 10.3 25.7 10.9 25.9C12.7 23 16.9 21.4 22.3 21.4C25.1 21.4 28.3 21.7 31.8 22.5C30.6 26.8 29.6 31.7 29.2 37C25.2 39.9 21.5 43 18.4 46.2C16.6 44.2 15 42.2 13.8 40.4C13.2 40.9 12.4 41.2 11.6 41.5C13 43.7 14.7 45.8 16.8 48.1C15.7 49.2 14.8 50.4 13.9 51.6C8.09999 59.3 6.39999 66.1 9.09999 70.8C11.4 74.6 16.3 76.6 23 76.6C25.9 76.6 29.2 76.3 32.7 75.5C36.4 86.8 42.1 94 48.7 94C51 94 53.3 93.1 55.5 91.4C54.9 90.9 54.3 90.5 53.7 89.9C52.2 91.1 50.5 91.7 48.8 91.7C43.4 91.7 38.5 85.2 35.3 75.2C39.6 74.1 44.2 72.4 49 70.4C53.6 72.4 58.1 74.1 62.4 75.2C62.2 75.7 62.1 76.3 61.9 76.7C62.7 76.9 63.4 77.2 64.1 77.6C64.4 77 64.6 76.2 64.7 75.6C66.2 75.9 67.9 76.2 69.5 76.5C71.3 76.8 73.2 76.8 74.9 76.8C81.7 76.8 86.4 74.8 88.6 71C91.4 66.2 89.7 59.5 83.8 51.8C82.9 50.6 82 49.5 80.9 48.3C86.6 42.1 90 36 90.3 30.9C88.9 31.3 88.1 31.7 87.2 31.8ZM77 48.3C74.4 51.1 71.3 53.7 67.8 56.3C68 53.7 68.1 50.9 68.1 48.1C68.1 45.3 67.9 42.7 67.8 40.1C71.2 42.7 74.4 45.5 77 48.3ZM31 48.1C31 44.9 31.2 41.6 31.5 38.6C34.3 36.6 37 34.8 40.1 33.1C42.9 31.4 45.8 30 48.6 28.6C51.4 29.8 54.3 31.4 57.2 33.1C60.1 34.8 62.9 36.5 65.5 38.3C65.8 41.5 66 44.8 66 48.2C66 51.6 65.8 55 65.5 58.2C63 59.9 60.4 61.6 57.6 63.3C54.7 65 51.6 66.5 48.7 67.9C45.8 66.5 42.9 65 39.8 63.3C36.9 61.6 34.1 59.9 31.5 58.1C31.2 54.7 31 51.5 31 48.1ZM65 35.4C62.8 33.9 60.5 32.5 58.2 31.1C55.9 29.7 53.6 28.5 51.3 27.4C55.1 25.7 59 24.5 62.5 23.6C63.6 27 64.4 31 65 35.4ZM48.4 4.69998C53.8 4.69998 58.7 11.3 61.9 21.3C57.6 22.4 53.1 24.1 48.5 26.1C43.7 23.9 39.1 22.3 34.8 21.2C38.1 11.2 43 4.69998 48.4 4.69998ZM34.1 23.5C37.8 24.4 41.6 25.8 45.6 27.5C43.3 28.6 41 29.8 38.8 31.2C36.3 32.6 33.9 34.1 31.7 35.7C32.2 31.2 33 27.2 34.1 23.5ZM28.9 40.4C28.7 42.9 28.6 45.5 28.6 48.1C28.6 50.9 28.8 53.5 28.9 56.1C25.5 53.5 22.6 50.9 20 48.2C22.5 45.5 25.6 42.9 28.9 40.4ZM11 69.8C8.79999 66 10.5 60 15.6 53.2C16.4 52.1 17.3 51 18.2 50C21.3 53.1 24.8 56.2 29 59.2C29.5 64.3 30.4 69.1 31.6 73.4C21.6 75.5 13.8 74.5 11 69.8ZM34.1 72.9C33 69.4 32.3 65.4 31.8 61C34 62.4 36.3 63.9 38.6 65.2C40.9 66.6 43.4 67.8 45.8 69C41.6 70.6 37.8 72 34.1 72.9ZM51.3 69.1C53.8 67.9 56.1 66.6 58.5 65.3C60.7 64.1 62.8 62.7 64.8 61.3C64.2 65.5 63.4 69.3 62.5 72.8C59 72 55.2 70.6 51.3 69.1ZM81.3 53.2C86.6 60 88.3 66 86 69.8C83.7 73.6 77.7 75.2 69.2 74.1C67.8 73.9 66.3 73.6 64.9 73.3C66.1 69.1 66.9 64.4 67.5 59.4C71.8 56.3 75.5 53.2 78.6 50C79.7 51.1 80.6 52.1 81.3 53.2Z"
        fill="#D9734D" />
    <path
        d="M85.8 29.6C89.0033 29.6 91.6 27.0033 91.6 23.8C91.6 20.5967 89.0033 18 85.8 18C82.5968 18 80 20.5967 80 23.8C80 27.0033 82.5968 29.6 85.8 29.6Z"
        fill="#D9734D" />
    <path
        d="M9.09999 39.9C12.3032 39.9 14.9 37.3032 14.9 34.1C14.9 30.8967 12.3032 28.3 9.09999 28.3C5.89674 28.3 3.29999 30.8967 3.29999 34.1C3.29999 37.3032 5.89674 39.9 9.09999 39.9Z"
        fill="#D9734D" />
    <path
        d="M59.2 90.1C62.4033 90.1 65 87.5033 65 84.3C65 81.0968 62.4033 78.5 59.2 78.5C55.9968 78.5 53.4 81.0968 53.4 84.3C53.4 87.5033 55.9968 90.1 59.2 90.1Z"
        fill="#D9734D" />
</svg>