<?xml version="1.0" encoding="utf-8"?>
<svg width="77" height="62" viewBox="0 0 77 62" fill="none" xmlns="http://www.w3.org/2000/svg">
    <path
        d="M75.3 31.9C74.2 29.3 72.1 27.2 69.5 26.2C60.7 22.6 52.3 28.9 52.3 37.2C52.3 38.6 52.5 39.9 53 41.2C53.1 41.6 53.3 42 53.5 42.4C53.8 43 54.1 43.5 54.5 44L62.9 55.8C63.6 56.8 65.1 56.8 65.9 55.8L74.4 44C74.8 43.5 75.1 42.9 75.4 42.4C75.6 42 75.7 41.6 75.9 41.2C76.7 38.4 76.7 35.2 75.3 31.9ZM64.4 43.6C60.9 43.6 58 40.7 58 37.2C58 33.7 60.9 30.8 64.4 30.8C67.9 30.8 70.8 33.7 70.8 37.2C70.8 40.8 67.9 43.6 64.4 43.6Z"
        fill="#D9734D" />
    <path
        d="M53.6 52.5L49.5 56.6C46 60.1 41.3 61.9 36.7 61.9C32.1 61.9 27.4 60.1 23.9 56.6C20.4 53.1 18.6 48.6 18.6 43.8C18.6 39 20.5 34.4 23.9 31L34.8 20.1C36 18.9 36.7 17.2 36.7 15.4C36.7 13.6 36 12 34.8 10.7C32.2 8.09999 28 8.09999 25.5 10.7L6.79999 29.2C5.39999 26.7 3.29999 24.6 0.799988 23.2L19.4 4.59999C25.3 -1.30001 34.9 -1.30001 40.8 4.59999C43.7 7.49999 45.2 11.3 45.2 15.3C45.2 19.3 43.6 23.1 40.8 26L29.9 36.9C28.1 38.7 27.1 41.1 27.1 43.7C27.1 46.3 28.1 48.7 29.9 50.5C33.7 54.3 39.8 54.3 43.5 50.5L48.7 45.3C49 45.9 49.4 46.6 49.9 47.3L53.6 52.5Z"
        fill="#D9734D" />
</svg>