<?xml version="1.0" encoding="utf-8"?>
<svg width="97" height="62" viewBox="0 0 97 62" fill="none" xmlns="http://www.w3.org/2000/svg">
    <path
        d="M95.7 31.8479C94.6 29.292 92.4999 27.2276 89.8999 26.2445C81.0999 22.7056 72.7 28.8987 72.7 37.058C72.7 38.4343 72.8999 39.7122 73.3999 40.9902C73.4999 41.3834 73.6999 41.7766 73.8999 42.1698C74.1999 42.7596 74.4999 43.2512 74.8999 43.7427L83.2999 55.3426C83.9999 56.3256 85.4999 56.3256 86.2999 55.3426L94.7999 43.7427C95.1999 43.2512 95.5 42.6613 95.7999 42.1698C96 41.7766 96.0999 41.3834 96.2999 40.9902C97.0999 38.2376 97.1 35.0919 95.7 31.8479ZM84.7999 43.3495C81.2999 43.3495 78.3999 40.4986 78.3999 37.058C78.3999 33.6173 81.2999 30.7665 84.7999 30.7665C88.2999 30.7665 91.2 33.6173 91.2 37.058C91.2 40.5969 88.2999 43.3495 84.7999 43.3495Z"
        fill="#D9734D" />
    <path
        d="M23 33.0275C21.9 30.4716 19.8 28.5055 17.2 27.4242C8.4 23.8852 0 30.0784 0 38.2376C0 39.6139 0.2 40.9902 0.7 42.1698C0.8 42.563 1 42.9562 1.2 43.3495C1.5 43.9393 1.8 44.4308 2.2 44.9223L10.5 56.5222C11.2 57.5053 12.7 57.5053 13.5 56.5222L21.9 44.9223C22.3 44.4308 22.6 43.841 22.9 43.2512C23.1 42.8579 23.2 42.4647 23.4 42.0715C24.4 39.4173 24.4 36.2716 23 33.0275ZM12 44.5291C8.5 44.5291 5.6 41.6783 5.6 38.2376C5.6 34.797 8.5 31.9462 12 31.9462C15.5 31.9462 18.4 34.797 18.4 38.2376C18.4 41.6783 15.6 44.5291 12 44.5291Z"
        fill="#D9734D" />
    <path
        d="M74 52.0986L69.9 56.129C66.4 59.5697 61.7 61.3392 57.1 61.3392C52.5 61.3392 47.8 59.5697 44.3 56.129C40.8 52.6884 39 48.2647 39 43.5461C39 38.8275 40.9 34.3055 44.3 30.9631L55.2 20.248C56.4 19.0683 57.1 17.3972 57.1 15.6277C57.1 13.8582 56.4 12.2853 55.2 11.0074C52.6 8.45146 48.4 8.45146 45.9 11.0074L27.2 29.1937C25.8 26.7361 23.7 24.6717 21.2 23.2954L39.8 5.01081C45.7 -0.789137 55.2999 -0.789137 61.2 5.01081C64.1 7.86164 65.5999 11.5972 65.5999 15.5294C65.5999 19.4615 64 23.1971 61.2 26.0479L50.3 36.7631C48.5 38.5326 47.5 40.8919 47.5 43.4478C47.5 46.0037 48.5 48.363 50.3 50.1325C54.1 53.868 60.2 53.868 63.9 50.1325L69.0999 45.0206C69.3999 45.6105 69.8 46.2986 70.3 46.9867L74 52.0986Z"
        fill="#D9734D" />
</svg>