<?xml version="1.0" encoding="utf-8"?>
<svg width="976" height="183" viewBox="0 0 976 183" fill="none" xmlns="http://www.w3.org/2000/svg">
    <g clip-path="url(#clip0_479_2032)">
        <path
            d="M108.078 169.881V152.903H114.034V169.02C114.034 170.587 114.978 171.49 116.417 171.49C117.439 171.49 118.388 170.994 118.957 170.21V152.903H124.912V175.475H118.957V173.543C117.809 174.985 116.083 175.93 114.07 175.93C110.336 175.93 108.078 173.501 108.078 169.882"
            fill="#F2E5D5" />
        <path
            d="M126.992 152.902H132.984V154.834C134.137 153.393 135.821 152.448 137.871 152.448C141.569 152.448 143.868 154.876 143.868 158.449V175.474H137.871V159.352C137.871 157.754 136.974 156.893 135.492 156.893C134.507 156.893 133.605 157.342 132.984 158.125V175.474H126.992V152.902Z"
            fill="#F2E5D5" />
        <path
            d="M145.947 146.403H151.902V151.333H145.947V146.403ZM145.947 152.905H151.902V175.476H145.947V152.905Z"
            fill="#F2E5D5" />
        <path
            d="M153.532 164.21C153.532 156.851 156.489 152.449 161.21 152.449C163.348 152.449 165.074 153.478 166.263 155.452V152.903H172.261V182.995H166.263V172.968C165.074 174.9 163.348 175.929 161.21 175.929C156.412 175.929 153.532 171.652 153.532 164.21ZM166.304 164.168C166.304 159.029 165.11 156.851 162.852 156.851C160.64 156.851 159.488 159.029 159.488 164.168C159.488 169.307 160.641 171.484 162.852 171.484C165.11 171.484 166.304 169.307 166.304 164.168Z"
            fill="#F2E5D5" />
        <path
            d="M174.292 169.881V152.903H180.248V169.02C180.248 170.587 181.192 171.49 182.631 171.49C183.653 171.49 184.602 170.994 185.171 170.21V152.903H191.126V175.475H185.171V173.543C184.023 174.985 182.297 175.93 180.284 175.93C176.55 175.93 174.292 173.501 174.292 169.882"
            fill="#F2E5D5" />
        <path
            d="M192.798 164.167C192.798 156.683 196.287 152.369 201.993 152.369C207.292 152.369 210.822 156.437 210.822 164.209V164.705H198.629C198.708 169.556 199.902 171.651 202.035 171.651C203.844 171.651 204.909 170.131 205.237 166.757H210.697C210.081 172.721 207.046 175.969 201.993 175.969C196.287 175.969 192.798 171.692 192.798 164.167ZM198.79 161.205H205.111C204.621 158.041 203.594 156.641 201.993 156.641C200.272 156.641 199.161 158.083 198.79 161.205Z"
            fill="#F2E5D5" />
        <path d="M218.443 146.69H212.487V175.477H218.443V146.69Z" fill="#F2E5D5" />
        <path
            d="M221.512 178.683H223.65C224.839 178.683 225.455 178.145 225.783 177.164L225.825 176.955L219.296 152.9H225.372L228.783 167.622L232.271 152.9H238.143L231.077 178.271C230.138 181.436 228.166 182.997 225.168 182.997H221.512V178.683Z"
            fill="#F2E5D5" />
        <path
            d="M246.413 146.693H252.411V155.404C253.599 153.477 255.326 152.448 257.459 152.448C262.262 152.448 265.141 156.72 265.141 164.168C265.141 171.526 262.183 175.929 257.459 175.929C255.326 175.929 253.599 174.9 252.411 172.926V175.474H246.413V146.693ZM259.185 164.209C259.185 159.07 258.038 156.893 255.816 156.893C253.557 156.893 252.369 159.07 252.369 164.209C252.369 169.348 253.557 171.526 255.816 171.526C258.038 171.526 259.185 169.348 259.185 164.209Z"
            fill="#F2E5D5" />
        <path
            d="M266.804 146.403H272.76V151.333H266.804V146.403ZM266.804 152.905H272.76V175.476H266.804V152.905Z"
            fill="#F2E5D5" />
        <path
            d="M274.392 164.168C274.392 156.475 277.839 152.365 283.67 152.365C289.501 152.365 292.953 156.475 292.953 164.168C292.953 171.814 289.5 175.971 283.67 175.971C277.84 175.971 274.392 171.813 274.392 164.168ZM286.997 164.168C286.997 159.029 285.85 156.851 283.67 156.851C281.49 156.851 280.306 159.029 280.306 164.168C280.306 169.307 281.495 171.485 283.67 171.485C285.845 171.485 286.997 169.307 286.997 164.168Z"
            fill="#F2E5D5" />
        <path d="M306.194 158.206H294.574V162.812H306.194V158.206Z" fill="#F2E5D5" />
        <path
            d="M307.828 164.167C307.828 156.683 311.317 152.369 317.023 152.369C322.322 152.369 325.852 156.437 325.852 164.209V164.705H313.659C313.738 169.556 314.932 171.651 317.065 171.651C318.874 171.651 319.939 170.131 320.267 166.757H325.727C325.111 172.721 322.076 175.969 317.023 175.969C311.317 175.969 307.828 171.692 307.828 164.167ZM313.82 161.205H320.141C319.651 158.041 318.624 156.641 317.023 156.641C315.302 156.641 314.191 158.083 313.82 161.205Z"
            fill="#F2E5D5" />
        <path
            d="M327.269 164.21C327.269 156.851 330.226 152.449 334.946 152.449C337.084 152.449 338.811 153.478 340 155.452V152.903H345.997V182.995H340V172.968C338.811 174.9 337.084 175.929 334.946 175.929C330.148 175.929 327.269 171.652 327.269 164.21ZM340.041 164.168C340.041 159.029 338.847 156.851 336.588 156.851C334.377 156.851 333.225 159.029 333.225 164.168C333.225 169.307 334.377 171.484 336.588 171.484C338.847 171.484 340.041 169.307 340.041 164.168Z"
            fill="#F2E5D5" />
        <path
            d="M348.03 169.881V152.903H353.985V169.02C353.985 170.587 354.929 171.49 356.368 171.49C357.39 171.49 358.339 170.994 358.908 170.21V152.903H364.864V175.475H358.908V173.543C357.761 174.985 356.034 175.93 354.021 175.93C350.287 175.93 348.029 173.501 348.029 169.882"
            fill="#F2E5D5" />
        <path
            d="M366.983 146.403H372.938V151.333H366.983V146.403ZM366.983 152.905H372.938V175.476H366.983V152.905Z"
            fill="#F2E5D5" />
        <path
            d="M373.79 152.902H379.788L381.55 161.044L383.193 169.181L384.919 161.044L386.687 152.902H392.476L386.765 175.474H379.459L373.79 152.902Z"
            fill="#F2E5D5" />
        <path
            d="M391.966 169.76C391.966 166.182 394.553 164.453 398.537 162.688C401.823 161.247 403.012 160.223 403.012 158.704C403.012 157.55 402.151 156.725 400.796 156.725C398.949 156.725 397.797 158.082 397.635 160.547H392.3C392.582 155.617 396.034 152.369 401.004 152.369C405.975 152.369 408.806 155.08 408.806 159.931V175.473H402.971V173.541C401.782 174.941 400.055 175.761 398.084 175.761C394.391 175.761 391.966 173.421 391.966 169.76M400.138 171.651C401.249 171.651 402.313 171.155 402.97 170.334V166.224L403.012 164.13C402.48 164.579 401.823 164.95 400.92 165.404C398.782 166.548 397.796 167.457 397.796 169.18C397.796 170.669 398.704 171.651 400.138 171.651Z"
            fill="#F2E5D5" />
        <path d="M416.834 146.69H410.879V175.477H416.834V146.69Z" fill="#F2E5D5" />
        <path
            d="M418.47 164.167C418.47 156.683 421.959 152.369 427.665 152.369C432.964 152.369 436.494 156.437 436.494 164.209V164.705H424.301C424.38 169.556 425.569 171.651 427.707 171.651C429.511 171.651 430.581 170.131 430.909 166.757H436.369C435.759 172.721 432.719 175.969 427.665 175.969C421.96 175.969 418.47 171.692 418.47 164.167ZM424.463 161.205H430.783C430.293 158.041 429.266 156.641 427.665 156.641C425.944 156.641 424.833 158.083 424.463 161.205Z"
            fill="#F2E5D5" />
        <path
            d="M438.119 152.902H444.112V154.834C445.264 153.393 446.949 152.448 448.998 152.448C452.696 152.448 454.996 154.876 454.996 158.449V175.474H448.998V159.352C448.998 157.754 448.096 156.893 446.62 156.893C445.635 156.893 444.732 157.342 444.112 158.125V175.474H438.119V152.902Z"
            fill="#F2E5D5" />
        <path
            d="M459.825 170.707V157.301H456.086V152.903H459.825V148.662H465.739V152.903H470.255V157.301H465.739V169.349C465.739 170.545 466.271 171.03 467.669 171.03H470.256V175.475H464.587C461.427 175.475 459.826 173.746 459.826 170.707"
            fill="#F2E5D5" />
        <path
            d="M482.388 170.707V157.301H478.649V152.903H482.388V148.662H488.303V152.903H492.819V157.301H488.303V169.349C488.303 170.545 488.835 171.03 490.232 171.03H492.819V175.475H487.15C483.99 175.475 482.389 173.746 482.389 170.707"
            fill="#F2E5D5" />
        <path
            d="M493.297 164.168C493.297 156.475 496.744 152.365 502.575 152.365C508.406 152.365 511.858 156.475 511.858 164.168C511.858 171.814 508.405 175.971 502.575 175.971C496.745 175.971 493.297 171.813 493.297 164.168ZM505.902 164.168C505.902 159.029 504.755 156.851 502.575 156.851C500.395 156.851 499.211 159.029 499.211 164.168C499.211 169.307 500.4 171.485 502.575 171.485C504.75 171.485 505.902 169.307 505.902 164.168Z"
            fill="#F2E5D5" />
        <path
            d="M520.905 146.691H526.897V154.796C528.05 153.391 529.734 152.451 531.747 152.451C535.481 152.451 537.781 154.874 537.781 158.452V175.477H531.783V159.356C531.783 157.753 530.881 156.891 529.405 156.891C528.419 156.891 527.517 157.34 526.896 158.123V175.477H520.904V146.691H520.905Z"
            fill="#F2E5D5" />
        <path
            d="M539.818 169.881V152.903H545.774V169.02C545.774 170.587 546.718 171.49 548.152 171.49C549.18 171.49 550.124 170.994 550.698 170.21V152.903H556.653V175.475H550.698V173.543C549.55 174.985 547.829 175.93 545.811 175.93C542.077 175.93 539.818 173.501 539.818 169.882"
            fill="#F2E5D5" />
        <path
            d="M558.731 152.902H564.687V154.996C565.755 153.477 567.435 152.448 569.448 152.448C571.623 152.448 573.265 153.519 574.131 155.242C575.196 153.643 577.047 152.448 579.305 152.448C582.835 152.448 584.927 154.876 584.927 158.449V175.474H579.018V159.07C579.018 157.629 578.236 156.893 576.963 156.893C576.102 156.893 575.362 157.3 574.825 157.958V175.475H568.875V159.071C568.875 157.629 568.134 156.893 566.903 156.893C566.001 156.893 565.219 157.343 564.687 158.037V175.475H558.731V152.903V152.902Z"
            fill="#F2E5D5" />
        <path
            d="M586.462 169.76C586.462 166.182 589.048 164.453 593.033 162.688C596.319 161.247 597.507 160.223 597.507 158.704C597.507 157.55 596.647 156.725 595.291 156.725C593.445 156.725 592.293 158.082 592.131 160.547H586.796C587.077 155.617 590.53 152.369 595.5 152.369C600.47 152.369 603.302 155.08 603.302 159.931V175.473H597.466V173.541C596.277 174.941 594.551 175.761 592.579 175.761C588.887 175.761 586.462 173.421 586.462 169.76M594.634 171.651C595.745 171.651 596.809 171.155 597.465 170.334V166.224L597.507 164.13C596.975 164.579 596.319 164.95 595.416 165.404C593.277 166.548 592.292 167.457 592.292 169.18C592.292 170.669 593.199 171.651 594.634 171.651Z"
            fill="#F2E5D5" />
        <path
            d="M605.335 152.902H611.327V154.834C612.48 153.393 614.164 152.448 616.214 152.448C619.911 152.448 622.211 154.876 622.211 158.449V175.474H616.214V159.352C616.214 157.754 615.317 156.893 613.835 156.893C612.85 156.893 611.948 157.342 611.327 158.125V175.474H605.335V152.902Z"
            fill="#F2E5D5" />
        <path
            d="M631.673 152.902H637.628V154.996C638.697 153.477 640.377 152.448 642.39 152.448C644.565 152.448 646.207 153.519 647.073 155.242C648.137 153.643 649.988 152.448 652.247 152.448C655.777 152.448 657.869 154.876 657.869 158.449V175.474H651.96V159.07C651.96 157.629 651.178 156.893 649.905 156.893C649.045 156.893 648.304 157.3 647.767 157.958V175.475H641.816V159.071C641.816 157.629 641.076 156.893 639.845 156.893C638.943 156.893 638.161 157.343 637.629 158.037V175.475H631.674V152.903L631.673 152.902Z"
            fill="#F2E5D5" />
        <path
            d="M659.94 169.881V152.903H665.895V169.02C665.895 170.587 666.839 171.49 668.278 171.49C669.3 171.49 670.249 170.994 670.818 170.21V152.903H676.774V175.475H670.818V173.543C669.67 174.985 667.944 175.93 665.931 175.93C662.197 175.93 659.939 173.501 659.939 169.882"
            fill="#F2E5D5" />
        <path
            d="M678.36 167.295H683.617C683.945 170.335 685.176 171.734 687.064 171.734C688.748 171.734 689.567 170.873 689.567 169.593C689.567 167.703 687.559 166.966 685.301 166.099C682.218 164.951 678.647 163.634 678.647 159.07C678.647 155.242 681.562 152.37 686.323 152.37C691.461 152.37 694.454 155.451 694.866 160.344H689.692C689.364 157.629 688.091 156.6 686.407 156.6C685.01 156.6 684.19 157.467 684.19 158.532C684.19 160.14 686.036 160.841 688.253 161.66C691.377 162.851 695.195 164.292 695.195 169.019C695.195 172.883 692.159 175.97 687.231 175.97C682.261 175.97 678.771 173.217 678.36 167.295Z"
            fill="#F2E5D5" />
        <path
            d="M696.328 164.168C696.328 156.475 699.776 152.365 705.528 152.365C710.493 152.365 713.737 155.614 714.268 161.944H708.688C708.36 158.408 707.332 156.851 705.564 156.851C703.431 156.851 702.242 159.029 702.242 164.168C702.242 169.307 703.389 171.485 705.564 171.485C707.415 171.485 708.443 169.798 708.73 165.891H714.316C713.904 172.513 710.66 175.971 705.529 175.971C699.776 175.971 696.328 171.861 696.328 164.168Z"
            fill="#F2E5D5" />
        <path d="M721.81 146.69H715.854V175.477H721.81V146.69Z" fill="#F2E5D5" />
        <path
            d="M723.449 164.167C723.449 156.683 726.938 152.369 732.643 152.369C737.942 152.369 741.473 156.437 741.473 164.209V164.705H729.28C729.358 169.556 730.547 171.651 732.685 171.651C734.49 171.651 735.558 170.131 735.888 166.757H741.348C740.738 172.721 737.698 175.969 732.644 175.969C726.938 175.969 723.449 171.692 723.449 164.167ZM729.441 161.205H735.762C735.272 158.041 734.244 156.641 732.643 156.641C730.922 156.641 729.812 158.083 729.441 161.205Z"
            fill="#F2E5D5" />
        <path
            d="M750.519 152.903H756.516V155.404C757.705 153.477 759.431 152.449 761.564 152.449C766.367 152.449 769.246 156.721 769.246 164.168C769.246 171.527 766.288 175.929 761.564 175.929C759.431 175.929 757.704 174.9 756.516 172.926V183.001H750.519V152.903V152.903ZM763.29 164.209C763.29 159.071 762.137 156.893 759.921 156.893C757.662 156.893 756.474 159.071 756.474 164.209C756.474 169.348 757.663 171.526 759.921 171.526C762.137 171.526 763.29 169.348 763.29 164.209Z"
            fill="#F2E5D5" />
        <path
            d="M770.87 152.902H776.862V155.9C778.015 153.68 779.903 152.489 782.202 152.489H782.531V158.244C782.041 158.124 781.503 158.035 780.971 158.035C779.329 158.035 777.769 158.657 776.861 159.806V175.473H770.869L770.87 152.902Z"
            fill="#F2E5D5" />
        <path
            d="M782.644 164.168C782.644 156.475 786.091 152.365 791.922 152.365C797.753 152.365 801.205 156.475 801.205 164.168C801.205 171.814 797.753 175.971 791.922 175.971C786.091 175.971 782.644 171.813 782.644 164.168ZM795.249 164.168C795.249 159.029 794.102 156.851 791.922 156.851C789.742 156.851 788.558 159.029 788.558 164.168C788.558 169.307 789.748 171.485 791.922 171.485C794.096 171.485 795.249 169.307 795.249 164.168Z"
            fill="#F2E5D5" />
        <path
            d="M805.13 157.299H801.474V152.901H805.13V151.334C805.13 148.086 806.856 146.242 810.262 146.242H815.268V150.269H812.806C811.534 150.269 811.085 150.759 811.085 151.872V152.901H815.268V157.299H811.085V175.473H805.13V157.299Z"
            fill="#F2E5D5" />
        <path
            d="M816.816 146.403H822.771V151.333H816.816V146.403ZM816.816 152.905H822.771V175.476H816.816V152.905Z"
            fill="#F2E5D5" />
        <path d="M830.813 146.69H824.857V175.477H830.813V146.69Z" fill="#F2E5D5" />
        <path
            d="M832.451 164.167C832.451 156.683 835.94 152.369 841.645 152.369C846.944 152.369 850.475 156.437 850.475 164.209V164.705H838.282C838.36 169.556 839.554 171.651 841.687 171.651C843.497 171.651 844.561 170.131 844.89 166.757H850.35C849.735 172.721 846.7 175.969 841.646 175.969C835.941 175.969 832.451 171.692 832.451 164.167ZM838.443 161.205H844.764C844.274 158.041 843.246 156.641 841.645 156.641C839.925 156.641 838.814 158.083 838.443 161.205Z"
            fill="#F2E5D5" />
        <path
            d="M851.606 167.295H856.863C857.192 170.335 858.423 171.734 860.31 171.734C861.995 171.734 862.813 170.873 862.813 169.593C862.813 167.703 860.806 166.966 858.547 166.099C855.465 164.951 851.893 163.634 851.893 159.07C851.893 155.242 854.808 152.37 859.57 152.37C864.702 152.37 867.7 155.451 868.112 160.344H862.939C862.61 157.629 861.338 156.6 859.654 156.6C858.256 156.6 857.437 157.467 857.437 158.532C857.437 160.14 859.283 160.841 861.499 161.66C864.623 162.851 868.441 164.292 868.441 169.019C868.441 172.883 865.406 175.97 860.477 175.97C855.507 175.97 852.018 173.217 851.606 167.295Z"
            fill="#F2E5D5" />
        <path
            d="M57.5663 100.382V81.7583C57.5663 73.3031 56.5131 63.417 54.5936 57.458L83.4547 57.5569L116.154 92.699H117.5V81.084C117.5 72.4409 116.06 61.9747 114.621 57.4573H145.594C143.868 63.3167 142.72 73.3024 142.72 81.7577V124.677H119.799L84.0336 86.8444H82.594V98.3653C82.594 107.201 84.0336 119.683 85.5667 124.677H54.5936C56.3199 118.817 57.5663 108.832 57.5663 100.382Z"
            fill="white" />
        <path
            d="M158.649 94.2355V81.7536C158.649 73.3037 157.502 63.4177 155.776 57.4586H186.65C184.923 63.4177 183.771 73.7843 183.771 82.2341V89.8171C183.771 98.4655 189.143 104.513 198.061 104.513C206.885 104.513 212.35 98.4655 212.35 89.8171V82.2341C212.35 73.7843 211.198 63.4177 209.378 57.4586H240.351C238.526 63.4177 237.472 73.3037 237.472 81.7536V94.2355C237.472 114.593 224.622 126.113 197.967 126.113C172.558 126.113 158.649 115.554 158.649 94.2355Z"
            fill="white" />
        <path
            d="M274.695 100.382V79.2567H264.244C256.285 79.2567 250.914 79.9304 246.121 81.9461L250.533 57.458H323.598L328.109 81.9461C323.505 80.0293 317.846 79.2567 309.986 79.2567H299.816V100.382C299.816 108.832 300.875 118.728 302.695 124.677H271.722C273.641 118.728 274.695 108.832 274.695 100.382"
            fill="white" />
        <path
            d="M368.395 97.1188C366.767 97.1188 363.602 97.4062 362.449 97.7925V101.73C362.449 110.18 363.409 118.724 365.328 124.678H334.355C336.274 118.724 337.328 108.833 337.328 100.383V81.7542C337.328 73.3044 336.175 63.4183 334.355 57.4593H386.424C404.932 57.4593 418.07 63.2197 418.07 75.1323C418.07 87.045 405.22 93.0874 386.998 93.0874H383.357V94.0484H383.644C394.382 94.0484 395.149 101.444 405.699 101.444C414.331 101.444 419.316 96.7331 421.616 91.5468L421.809 119.685C419.509 123.33 413.084 126.114 406.753 126.114C378.559 126.114 388.917 97.1188 368.395 97.1188ZM383.258 89.4368C389.015 89.4368 392.943 87.6089 392.943 84.0627C392.943 80.6054 389.016 78.7774 383.544 78.7774H362.449V89.4368H383.258Z"
            fill="white" />
        <path
            d="M431.697 100.382V81.7583C431.697 73.3031 430.55 63.318 428.823 57.458H459.796C457.971 63.3174 456.818 73.3031 456.818 81.7583V100.382C456.818 108.832 457.877 118.728 459.796 124.677H428.823C430.643 118.728 431.697 108.832 431.697 100.382Z"
            fill="white" />
        <path
            d="M473.417 100.382V81.7583C473.417 73.3031 472.363 63.417 470.543 57.458H503.91L518.586 84.1611C521.173 88.7618 522.612 91.6451 524.813 97.7919H525.965C528.072 91.8383 529.323 89.342 532.104 84.1611L546.967 57.458H579.568C577.748 63.417 576.694 73.3031 576.694 81.7583V100.382C576.694 108.832 577.841 118.817 579.568 124.677H548.693C550.227 119.397 551.567 108.351 551.567 99.7127V86.1707H550.128L528.271 124.677H521.46L499.598 86.1707H498.638V99.7127C498.638 108.351 499.885 119.396 501.517 124.677H470.544C472.27 118.817 473.417 108.832 473.417 100.382"
            fill="white" />
        <path
            d="M594.838 100.382L603.657 81.7583C607.11 73.3031 609.889 63.417 610.755 57.458H650.646C651.506 63.6047 654.38 73.6894 657.639 81.6594L666.463 100.382C669.916 108.832 674.808 118.729 678.74 124.677H647.48C647.193 121.22 646.327 117.094 644.507 111.427L643.355 109.025H617.946L616.793 111.527C615.067 117.188 614.107 121.32 613.82 124.677H582.561C586.488 118.729 591.38 108.743 594.837 100.382M638.943 98.8458L634.343 88.8601C632.711 84.8232 632.038 81.4649 631.271 77.1461H630.025C629.066 81.7577 628.591 84.5413 626.864 88.8601L622.353 98.8458H638.943Z"
            fill="white" />
        <path
            d="M697.739 100.382V79.2567H687.288C679.329 79.2567 673.958 79.9304 669.165 81.9461L673.578 57.458H746.643L751.154 81.9461C746.549 80.0293 740.89 79.2567 733.032 79.2567H722.862V100.382C722.862 108.832 723.92 118.728 725.74 124.677H694.767C696.686 118.728 697.739 108.832 697.739 100.382Z"
            fill="white" />
        <path
            d="M752.507 91.0689C752.507 66.8675 774.369 56.0203 799.49 56.0203C812.727 56.0203 824.138 58.7097 831.423 61.9739L829.509 85.402C824.523 81.2764 814.546 77.819 803.235 77.819C789.133 77.819 777.92 82.331 777.92 91.0682C777.92 100.192 789.806 104.317 805.436 104.317C817.139 104.317 827.303 101.153 834.302 96.0607V121.61C825.191 124.294 814.74 126.117 800.163 126.117C775.136 126.117 752.507 115.365 752.507 91.0689Z"
            fill="white" />
        <path
            d="M844.768 100.382V81.7583C844.768 73.3031 843.522 63.417 841.796 57.458H872.769C870.849 63.7037 869.796 72.2484 869.796 80.6041V85.2157H896.931V80.6041C896.931 72.1542 895.783 63.417 894.057 57.458H925.03C923.21 63.3174 922.057 73.3031 922.057 81.7583V100.382C922.057 108.832 923.111 118.728 925.03 124.677H894.057C895.59 118.728 896.931 109.986 896.931 101.536V96.1564H869.796V101.536C869.796 109.698 870.563 118.248 872.769 124.677H841.796C843.715 118.817 844.768 108.832 844.768 100.382Z"
            fill="white" />
        <path
            d="M302.429 6.49853H308.421V8.43088C309.574 6.98924 311.259 6.04442 313.308 6.04442C317.006 6.04442 319.306 8.4729 319.306 12.0455V29.0706H313.308V12.9489C313.308 11.3507 312.411 10.4893 310.93 10.4893C309.944 10.4893 309.042 10.9387 308.421 11.7215V29.0706H302.429V6.49853Z"
            fill="#F2E5D5" />
        <path
            d="M320.807 23.3562C320.807 19.7789 323.394 18.0499 327.378 16.285C330.664 14.8433 331.853 13.8199 331.853 12.3003C331.853 11.1461 330.992 10.3212 329.637 10.3212C327.79 10.3212 326.638 11.6788 326.476 14.1439H321.141C321.423 9.21372 324.875 5.96581 329.845 5.96581C334.815 5.96581 337.647 8.67624 337.647 13.5278V29.0699H331.812V27.1376C330.623 28.5372 328.896 29.3573 326.925 29.3573C323.232 29.3573 320.807 27.0169 320.807 23.3562ZM328.979 25.2466C330.09 25.2466 331.154 24.7504 331.811 23.9303V19.8203L331.853 17.7259C331.321 18.1753 330.664 18.546 329.761 19.0002C327.623 20.1442 326.637 21.0525 326.637 22.7761C326.637 24.2645 327.545 25.2466 328.979 25.2466Z"
            fill="#F2E5D5" />
        <path
            d="M342.267 24.3031V10.8966H338.533V6.49921H342.267V2.25903H348.182V6.49989H352.698V10.8973H348.182V22.9455C348.182 24.1418 348.714 24.6271 350.111 24.6271H352.698V29.0712H347.029C343.869 29.0712 342.267 27.3429 342.267 24.3031Z"
            fill="#F2E5D5" />
        <path
            d="M354.203 23.4769V6.49853H360.158V22.6154C360.158 24.1824 361.102 25.0859 362.541 25.0859C363.563 25.0859 364.512 24.5898 365.081 23.8063V6.49853H371.037V29.0706H365.081V27.1382C363.933 28.5799 362.207 29.5247 360.194 29.5247C356.46 29.5247 354.203 27.0962 354.203 23.4769Z"
            fill="#F2E5D5" />
        <path
            d="M373.115 6.49853H379.107V9.49635C380.26 7.27662 382.148 6.08577 384.447 6.08577H384.776V11.8408C384.286 11.7208 383.754 11.632 383.216 11.632C381.574 11.632 380.014 12.2535 379.106 13.4024V29.0699H373.114V6.49853H373.115Z"
            fill="#F2E5D5" />
        <path
            d="M385.18 23.3562C385.18 19.7789 387.762 18.0499 391.746 16.285C395.032 14.8433 396.22 13.8199 396.22 12.3003C396.22 11.1461 395.36 10.3212 394.004 10.3212C392.158 10.3212 391.006 11.6788 390.844 14.1439H385.503C385.79 9.21372 389.243 5.96581 394.213 5.96581C399.183 5.96581 402.015 8.67624 402.015 13.5278V29.0699H396.179V27.1376C394.99 28.5372 393.264 29.3573 391.292 29.3573C387.6 29.3573 385.18 27.0169 385.18 23.3562ZM393.347 25.2466C394.458 25.2466 395.522 24.7504 396.179 23.9303V19.8203L396.221 17.7259C395.689 18.1753 395.032 18.546 394.129 19.0002C391.991 20.1442 391.006 21.0525 391.006 22.7761C391.006 24.2645 391.913 25.2466 393.347 25.2466Z"
            fill="#F2E5D5" />
        <path d="M410.045 0.287378H404.089V29.0739H410.045V0.287378Z" fill="#F2E5D5" />
        <path d="M418.081 0.287378H412.126V29.0739H418.081V0.287378Z" fill="#F2E5D5" />
        <path
            d="M421.155 32.2791H423.293C424.482 32.2791 425.097 31.741 425.426 30.7596L425.468 30.5508L418.939 6.49582H425.015L428.425 21.2178L431.914 6.49582H437.786L430.719 31.867C429.775 35.0323 427.804 36.5932 424.811 36.5932H421.155V32.2791Z"
            fill="#F2E5D5" />
        <path
            d="M445.647 17.7646C445.647 10.0718 449.094 5.96173 454.925 5.96173C460.756 5.96173 464.208 10.0718 464.208 17.7646C464.208 25.4106 460.755 29.5674 454.925 29.5674C449.094 29.5674 445.647 25.4099 445.647 17.7646ZM458.252 17.7646C458.252 12.6256 457.104 10.4479 454.925 10.4479C452.745 10.4479 451.561 12.6256 451.561 17.7646C451.561 22.9035 452.75 25.0812 454.925 25.0812C457.1 25.0812 458.252 22.9035 458.252 17.7646Z"
            fill="#F2E5D5" />
        <path
            d="M465.829 6.49853H471.826V9.00021C473.015 7.07329 474.741 6.04442 476.874 6.04442C481.678 6.04442 484.556 10.3165 484.556 17.7639C484.556 25.1225 481.599 29.5247 476.874 29.5247C474.741 29.5247 473.015 28.4958 471.826 26.5221V36.5966H465.829V6.49853ZM478.601 17.8059C478.601 12.667 477.453 10.4893 475.232 10.4893C472.973 10.4893 471.784 12.667 471.784 17.8059C471.784 22.9448 472.973 25.1225 475.232 25.1225C477.453 25.1225 478.601 22.9448 478.601 17.8059Z"
            fill="#F2E5D5" />
        <path
            d="M488.561 24.3031V10.8966H484.822V6.49921H488.561V2.25903H494.475V6.49989H498.991V10.8973H494.475V22.9455C494.475 24.1418 495.008 24.6271 496.405 24.6271H498.992V29.0712H493.323C490.163 29.0712 488.561 27.3429 488.561 24.3031Z"
            fill="#F2E5D5" />
        <path
            d="M500.534 0H506.49V4.93016H500.534V0ZM500.534 6.49718H506.49V29.0685H500.534V6.49718Z"
            fill="#F2E5D5" />
        <path
            d="M508.535 6.49853H514.49V8.59286C515.559 7.07329 517.239 6.04442 519.252 6.04442C521.427 6.04442 523.069 7.11531 523.935 8.83822C524.999 7.24002 526.85 6.04442 529.109 6.04442C532.639 6.04442 534.731 8.4729 534.731 12.0455V29.0706H528.822V12.667C528.822 11.2254 528.04 10.4893 526.767 10.4893C525.906 10.4893 525.166 10.8966 524.629 11.5548V29.0712H518.678V12.6677C518.678 11.226 517.938 10.49 516.707 10.49C515.805 10.49 515.023 10.9393 514.49 11.6334V29.0712H508.535V6.49853Z"
            fill="#F2E5D5" />
        <path
            d="M536.842 0H542.798V4.93016H536.842V0ZM536.842 6.49718H542.798V29.0685H536.842V6.49718Z"
            fill="#F2E5D5" />
        <path
            d="M544.308 25.1239L553.054 10.8926L544.517 10.9346V6.50056H560.037V10.4432L551.208 24.6698L559.871 24.6277V29.0719H544.308V25.1239Z"
            fill="#F2E5D5" />
        <path
            d="M560.516 17.7625C560.516 10.2785 564.005 5.96512 569.711 5.96512C575.01 5.96512 578.541 10.0331 578.541 17.8045V18.3007H566.347C566.426 23.1522 567.62 25.2465 569.753 25.2465C571.563 25.2465 572.627 23.727 572.955 20.353H578.415C577.8 26.3167 574.765 29.5653 569.711 29.5653C564.006 29.5653 560.516 25.2879 560.516 17.7625ZM566.509 14.8013H572.83C572.34 11.6368 571.312 10.2372 569.711 10.2372C567.99 10.2372 566.879 11.6788 566.509 14.8013Z"
            fill="#F2E5D5" />
        <path
            d="M579.957 17.8066C579.957 10.4479 582.914 6.04577 587.634 6.04577C589.773 6.04577 591.499 7.07464 592.688 9.04832V0.284667H598.686V29.0712H592.688V26.5641C591.499 28.4965 589.773 29.5253 587.634 29.5253C582.836 29.5253 579.957 25.2486 579.957 17.8066ZM592.729 17.7645C592.729 12.6256 591.535 10.4479 589.277 10.4479C587.065 10.4479 585.913 12.6256 585.913 17.7645C585.913 22.9034 587.066 25.0811 589.277 25.0811C591.535 25.0811 592.729 22.9034 592.729 17.7645Z"
            fill="#F2E5D5" />
        <path
            d="M607.527 6.49853H612.7L613.644 14.6766L614.511 22.8655L615.867 14.6766L617.18 6.49853H622.677L623.992 14.6766L625.348 22.8655L626.25 14.6766L627.116 6.49853H632.122L628.837 29.0699H622.146L620.956 21.4605L619.845 13.8151L618.698 21.4605L617.546 29.0699H610.813L607.527 6.49853Z"
            fill="#F2E5D5" />
        <path
            d="M633.579 0H639.535V4.93016H633.579V0ZM633.579 6.49718H639.535V29.0685H633.579V6.49718Z"
            fill="#F2E5D5" />
        <path
            d="M644.779 24.3031V10.8966H641.045V6.49921H644.779V2.25903H650.693V6.49989H655.209V10.8973H650.693V22.9455C650.693 24.1418 651.225 24.6271 652.622 24.6271H655.209V29.0712H649.54C646.379 29.0712 644.778 27.3429 644.778 24.3031"
            fill="#F2E5D5" />
        <path
            d="M656.715 0.2867H662.707V8.39224C663.86 6.98721 665.545 6.04713 667.558 6.04713C671.292 6.04713 673.592 8.47019 673.592 12.0482V29.0733H667.594V12.9517C667.594 11.3487 666.692 10.4866 665.216 10.4866C664.23 10.4866 663.328 10.9359 662.707 11.7188V29.0733H656.715V0.2867Z"
            fill="#F2E5D5" />
        <path d="M936.409 60.7024H932.889V58.112H943.126V60.7024H939.58V72.7296H936.409V60.7024Z"
            fill="white" />
        <path
            d="M943.816 58.1113H948.212L949.068 62.916L949.902 67.7154L951.571 58.1113H955.952V72.7296H953.177L953.24 65.5898L953.303 61.0989L952.489 65.5898L951.154 72.7296H948.546L947.211 65.5898L946.403 61.0989L946.465 65.5898L946.528 72.7296H943.816V58.1113Z"
            fill="white" />
        <path d="M95.6575 166.381H0V15.6438H286.754V20.8668H5.2155V161.159H95.6575V166.381Z"
            fill="#F2E5D5" />
        <path d="M976 166.381H880.342V161.159H970.784V20.8668H689.257V15.6438H976V166.381Z"
            fill="#F2E5D5" />
    </g>
    <defs>
        <clipPath id="clip0_479_2032">
            <rect width="976" height="183" fill="white" />
        </clipPath>
    </defs>
</svg>