<?xml version="1.0" encoding="UTF-8"?>
<svg id="Layer_1" data-name="Layer 1" xmlns="http://www.w3.org/2000/svg" viewBox="0 0 979 188">
  <defs>
    <style>
      .cls-1 {
        fill: #595959;
      }

      .cls-2 {
        fill: #737373;
      }

      .cls-3 {
        fill: #262624;
      }
    </style>
  </defs>
  <g>
    <path class="cls-1" d="M276.11,118.77c.57,0,1.06.2,1.48.59.41.4.62.94.62,1.64v4.9c0,.57-.19,1.06-.57,1.47-.38.41-.89.62-1.52.62h-40.51c-1.4,0-2.1-.7-2.1-2.09V59.45c0-.57.19-1.06.57-1.47.38-.41.92-.62,1.62-.62h4.91c.6,0,1.1.17,1.5.52.4.35.59.87.59,1.57v59.32h33.41Z"/>
    <path class="cls-1" d="M288.11,59.45c0-.57.18-1.06.55-1.47s.88-.62,1.55-.62h4.96c.57,0,1.08.19,1.52.57.45.38.67.89.67,1.52v66.45c0,1.4-.73,2.09-2.19,2.09h-4.96c-1.4,0-2.1-.7-2.1-2.09V59.45Z"/>
    <path class="cls-1" d="M317.47,59.12c.45,1.21,1.06,2.8,1.86,4.78.79,1.98,1.68,4.2,2.67,6.66.98,2.46,2.05,5.09,3.19,7.9,1.14,2.81,2.3,5.64,3.46,8.49s2.3,5.66,3.43,8.42c1.13,2.76,2.17,5.31,3.12,7.66.95,2.35,1.8,4.42,2.55,6.23.74,1.81,1.33,3.21,1.74,4.19.38-.98.95-2.38,1.69-4.19.74-1.81,1.59-3.88,2.55-6.23.95-2.35,1.99-4.9,3.1-7.66,1.11-2.76,2.24-5.56,3.38-8.42,1.14-2.85,2.28-5.68,3.41-8.49,1.13-2.81,2.18-5.44,3.17-7.9s1.87-4.68,2.67-6.66c.79-1.98,1.41-3.58,1.86-4.78.22-.54.54-.97.95-1.28.41-.32.94-.48,1.57-.48h5c1.49,0,2.24.56,2.24,1.67,0,.13-.02.25-.05.38-.03.13-.06.27-.09.43-.03.16-.07.32-.1.48l-27.26,65.93c-.06.16-.14.34-.24.55-.09.2-.22.4-.38.57-.16.18-.39.33-.69.45s-.71.19-1.21.19h-3.15c-.48,0-.87-.06-1.17-.19-.3-.13-.53-.28-.69-.45-.16-.17-.29-.36-.38-.57-.1-.21-.17-.39-.24-.55l-27.5-65.93c-.03-.1-.06-.21-.1-.33-.06-.25-.09-.57-.09-.95,0-1.11.73-1.67,2.19-1.67h5.05c.63,0,1.16.16,1.57.48.41.32.71.75.9,1.28Z"/>
    <path class="cls-1" d="M429.22,57.36c1.46,0,2.19.76,2.19,2.28v4.71c0,.6-.18,1.13-.55,1.57-.36.44-.94.67-1.74.67h-38.41v19.55h30.21c.57,0,1.06.17,1.48.5s.62.9.62,1.69v4.85c0,.57-.17,1.08-.52,1.52s-.87.67-1.57.67h-30.21v23.4h38.6c1.46,0,2.19.75,2.19,2.23v4.9c0,1.4-.7,2.09-2.1,2.09h-45.84c-1.4,0-2.1-.67-2.1-2V59.55c0-1.46.7-2.19,2.1-2.19h45.65Z"/>
    <path class="cls-3" d="M496.64,62.49c.54.32.94.73,1.19,1.24.26.51.21,1.11-.14,1.81l-8.05,11.41c-.35.54-.72.85-1.12.93s-.88-.05-1.45-.41c-1.56-1.17-3.27-2.08-5.15-2.71-1.88-.63-3.86-.95-5.96-.95-2.61,0-5,.49-7.2,1.47-2.19.98-4.08,2.33-5.67,4.04-1.59,1.71-2.83,3.71-3.72,5.99-.89,2.28-1.33,4.73-1.33,7.33s.44,5.03,1.33,7.3c.89,2.27,2.13,4.25,3.72,5.95,1.59,1.7,3.48,3.04,5.67,4.02,2.19.98,4.59,1.47,7.2,1.47,2.1,0,4.1-.32,6-.97,1.9-.65,3.64-1.56,5.19-2.73.57-.35,1.05-.49,1.43-.43.38.07.76.35,1.14.86l8.15,11.7c.35.7.4,1.28.14,1.76-.26.48-.65.87-1.19,1.19-2.99,2-6.2,3.55-9.65,4.64-3.45,1.09-7.08,1.64-10.89,1.64-3.37,0-6.6-.43-9.7-1.28s-6-2.08-8.7-3.66c-2.7-1.59-5.15-3.48-7.36-5.68-2.21-2.2-4.11-4.64-5.69-7.33-1.59-2.68-2.81-5.56-3.67-8.66-.86-3.09-1.29-6.32-1.29-9.68s.43-6.59,1.29-9.68,2.08-5.99,3.67-8.71c1.59-2.71,3.49-5.18,5.69-7.4s4.66-4.11,7.36-5.68c2.7-1.57,5.6-2.79,8.7-3.66s6.33-1.31,9.7-1.31c3.81,0,7.41.53,10.8,1.59,3.38,1.06,6.57,2.59,9.55,4.59Z"/>
    <path class="cls-3" d="M502.32,92.75c0-3.36.43-6.59,1.29-9.68s2.08-5.99,3.67-8.71c1.59-2.71,3.49-5.18,5.7-7.4,2.21-2.22,4.67-4.11,7.37-5.68s5.6-2.79,8.7-3.66,6.33-1.31,9.7-1.31,6.57.44,9.68,1.31,6.02,2.09,8.73,3.66,5.17,3.46,7.39,5.68c2.22,2.22,4.12,4.69,5.7,7.4,1.57,2.71,2.8,5.61,3.67,8.71s1.31,6.32,1.31,9.68-.44,6.59-1.31,9.68-2.1,5.98-3.67,8.66c-1.57,2.68-3.47,5.12-5.7,7.33-2.23,2.2-4.69,4.1-7.39,5.68-2.7,1.59-5.61,2.81-8.73,3.66s-6.34,1.28-9.68,1.28-6.6-.43-9.7-1.28-6-2.08-8.7-3.66c-2.7-1.59-5.16-3.48-7.37-5.68-2.21-2.2-4.11-4.64-5.7-7.33-1.59-2.68-2.81-5.56-3.67-8.66s-1.29-6.32-1.29-9.68ZM520.76,92.7c0,2.63.44,5.09,1.33,7.37.89,2.28,2.13,4.27,3.74,5.97,1.6,1.7,3.5,3.03,5.69,3.99,2.19.97,4.6,1.45,7.23,1.45s5.05-.48,7.26-1.45c2.2-.97,4.11-2.3,5.71-3.99,1.6-1.7,2.85-3.69,3.74-5.97.89-2.28,1.33-4.74,1.33-7.37s-.45-5.05-1.33-7.35c-.89-2.3-2.13-4.3-3.74-6.02-1.6-1.71-3.51-3.06-5.71-4.04-2.21-.98-4.62-1.47-7.26-1.47s-5.04.49-7.23,1.47-4.08,2.33-5.69,4.04c-1.6,1.71-2.85,3.72-3.74,6.02-.89,2.3-1.33,4.75-1.33,7.35Z"/>
    <path class="cls-3" d="M590.81,59.45c.06-.57.29-1.06.67-1.47.38-.41.92-.62,1.62-.62h16.49c1.18,0,1.94.6,2.29,1.81l12.96,43.19,13.06-43.19c.45-1.2,1.26-1.81,2.43-1.81h16.3c.57,0,1.09.2,1.55.6s.72.9.79,1.5c1.11,11.16,2.25,22.24,3.41,33.23,1.16,10.99,2.29,22.06,3.41,33.23v.24c0,1.24-.7,1.86-2.1,1.86h-13.49c-1.46,0-2.22-.7-2.29-2.09l-4.15-36.77-10.72,37.01c-.06.32-.29.7-.69,1.14-.4.44-.79.67-1.17.67h-12.53c-.38,0-.79-.21-1.22-.64-.43-.43-.66-.82-.69-1.17l-10.72-36.91-4.15,36.67c-.06,1.4-.84,2.09-2.34,2.09h-13.48c-1.37,0-2.05-.7-2.05-2.09l6.82-66.45Z"/>
    <path class="cls-3" d="M677.49,59.55c0-.67.17-1.2.52-1.59s.87-.6,1.57-.6h30.45c2.19,0,4.26.3,6.19.9s3.72,1.43,5.34,2.5c1.62,1.06,3.08,2.33,4.38,3.8,1.3,1.48,2.41,3.07,3.31,4.78.9,1.71,1.6,3.51,2.07,5.4s.71,3.8.71,5.73c0,2.85-.52,5.65-1.55,8.37-1.03,2.73-2.5,5.15-4.41,7.28-1.9,2.13-4.19,3.85-6.86,5.16-2.67,1.32-5.62,1.99-8.86,2.02h-14.44v22.64c0,1.36-.73,2.05-2.19,2.05h-14.15c-.64,0-1.14-.17-1.52-.5-.38-.33-.57-.85-.57-1.55V59.55ZM713.38,80.38c0-.95-.17-1.9-.5-2.85-.33-.95-.82-1.8-1.45-2.54-.64-.74-1.41-1.36-2.31-1.83-.91-.48-1.93-.71-3.07-.71h-10.1v15.89h10.1c1.14,0,2.18-.23,3.1-.69.92-.46,1.69-1.05,2.31-1.78.62-.73,1.1-1.57,1.43-2.52.33-.95.5-1.93.5-2.95Z"/>
    <path class="cls-3" d="M740.73,59.4c0-.57.19-1.06.57-1.47.38-.41.9-.62,1.57-.62h14.1c.54,0,1.03.19,1.48.57.45.38.68.89.72,1.52v51.75h26.21c.57,0,1.07.19,1.48.57.41.38.62.9.62,1.57v12.51c0,.54-.18,1.03-.55,1.48s-.88.68-1.55.71h-42.55c-1.4,0-2.1-.7-2.1-2.09V59.4Z"/>
    <path class="cls-3" d="M798.58,59.55c0-.67.18-1.2.55-1.59.36-.4.88-.6,1.54-.6h47.28c.7,0,1.24.21,1.62.62.38.41.57.96.57,1.66v11.76c0,.54-.19,1.05-.57,1.54-.38.49-.94.73-1.67.73h-30.88v11.8h23.83c.6,0,1.1.14,1.5.43s.6.76.6,1.43v10.28c0,.44-.17.87-.52,1.28s-.86.62-1.52.62h-23.88v12.18h32.03c1.43,0,2.14.73,2.14,2.18v11.95c0,.32-.13.6-.38.85-.13.89-.78,1.33-1.96,1.33h-48.18c-.64,0-1.14-.17-1.52-.5s-.57-.85-.57-1.55V59.55Z"/>
    <path class="cls-3" d="M859.05,59.44c0-.63.21-1.14.64-1.52.43-.38.96-.57,1.6-.57h51.28c.57,0,1.08.17,1.52.52.44.35.7.87.76,1.56v11.81c0,.57-.2,1.11-.6,1.64s-.96.78-1.69.78h-16.44v52.09c0,.57-.21,1.09-.62,1.55-.41.46-.95.69-1.62.69h-13.97c-.54,0-1.05-.21-1.52-.64-.48-.43-.71-.96-.71-1.59v-52.09h-16.39c-.64,0-1.17-.2-1.6-.61-.43-.41-.64-1.01-.64-1.8v-11.81Z"/>
    <path class="cls-3" d="M926.39,59.55c0-.67.18-1.2.55-1.59.36-.4.88-.6,1.54-.6h47.28c.7,0,1.24.21,1.62.62.38.41.57.96.57,1.66v11.76c0,.54-.19,1.05-.57,1.54-.38.49-.94.73-1.67.73h-30.88v11.8h23.83c.6,0,1.1.14,1.5.43s.6.76.6,1.43v10.28c0,.44-.17.87-.52,1.28s-.86.62-1.52.62h-23.88v12.18h32.03c1.43,0,2.14.73,2.14,2.18v11.95c0,.32-.13.6-.38.85-.13.89-.78,1.33-1.96,1.33h-48.18c-.64,0-1.14-.17-1.52-.5s-.57-.85-.57-1.55V59.55Z"/>
  </g>
  <path class="cls-3" d="M102.77,158.23c32.63,2.07,61.41-15.69,75.42-42.35.91-1.72-.35-3.8-2.3-3.8h-15.96c-.85,0-1.64.43-2.12,1.13-11.37,16.57-30.78,27.22-52.58,26.27-30.53-1.33-55.66-25.85-57.64-56.29-2.28-35.08,25.66-64.35,60.33-64.35,25.64,0,47.59,16.03,56.36,38.57h-7.22c-1.08,0-1.64,1.28-.9,2.07l17.42,18.74c.49.53,1.32.53,1.81,0l17.42-18.74c.73-.79.17-2.07-.9-2.07h-7.72C174.67,24.31,144.1,0,107.92,0,62.27,0,25.5,38.68,28.78,84.93c2.78,39.19,34.71,70.81,73.99,73.3Z"/>
  <path class="cls-2" d="M194.76,112.15c-1.14,0-2.15.69-2.59,1.74-13.92,33.24-46.77,55.26-83.17,55.26-49.69,0-90.11-40.35-90.11-89.95V3.86c0-1.55-1.26-2.81-2.82-2.81H2.82C1.26,1.05,0,2.31,0,3.86v75.33c0,59.99,48.9,108.8,109,108.8,45.92,0,87.17-28.98,102.65-72.12h0c.63-1.83-.72-3.73-2.66-3.73h-14.23Z"/>
</svg>