<?xml version="1.0" encoding="utf-8"?>
<svg width="29" height="26" viewBox="0 0 29 26" fill="none" xmlns="http://www.w3.org/2000/svg">
    <path
        d="M12 24C12 24.3956 11.8827 24.7822 11.6629 25.1111C11.4432 25.44 11.1308 25.6964 10.7654 25.8478C10.3999 25.9991 9.99778 26.0387 9.60982 25.9616C9.22186 25.8844 8.86549 25.6939 8.58579 25.4142C8.30608 25.1345 8.1156 24.7781 8.03843 24.3902C7.96126 24.0022 8.00087 23.6001 8.15224 23.2346C8.30362 22.8692 8.55996 22.5568 8.88886 22.3371C9.21776 22.1173 9.60444 22 10 22C10.5304 22 11.0391 22.2107 11.4142 22.5858C11.7893 22.9609 12 23.4696 12 24ZM23 22C22.6044 22 22.2178 22.1173 21.8889 22.3371C21.56 22.5568 21.3036 22.8692 21.1522 23.2346C21.0009 23.6001 20.9613 24.0022 21.0384 24.3902C21.1156 24.7781 21.3061 25.1345 21.5858 25.4142C21.8655 25.6939 22.2219 25.8844 22.6098 25.9616C22.9978 26.0387 23.3999 25.9991 23.7654 25.8478C24.1308 25.6964 24.4432 25.44 24.6629 25.1111C24.8827 24.7822 25 24.3956 25 24C25 23.4696 24.7893 22.9609 24.4142 22.5858C24.0391 22.2107 23.5304 22 23 22ZM28.9638 6.2675L25.7588 17.8025C25.5825 18.4326 25.2056 18.9881 24.6852 19.3846C24.1648 19.7812 23.5293 19.9973 22.875 20H10.52C9.86379 19.9997 9.22568 19.7848 8.703 19.388C8.18031 18.9913 7.80173 18.4345 7.625 17.8025L3.24 2H1C0.734784 2 0.48043 1.89464 0.292893 1.70711C0.105357 1.51957 0 1.26522 0 1C0 0.734784 0.105357 0.48043 0.292893 0.292893C0.48043 0.105357 0.734784 1.84705e-08 1 1.84705e-08H4C4.21863 -4.19873e-05 4.43124 0.0715645 4.6053 0.203858C4.77936 0.336151 4.90527 0.52184 4.96375 0.7325L6.14875 5H28C28.1542 4.99997 28.3062 5.03558 28.4444 5.10406C28.5825 5.17254 28.7029 5.27202 28.7962 5.39474C28.8895 5.51746 28.9532 5.66009 28.9823 5.81149C29.0113 5.96289 29.005 6.11895 28.9638 6.2675ZM26.6838 7H6.705L9.55625 17.2675C9.61473 17.4782 9.74064 17.6638 9.9147 17.7961C10.0888 17.9284 10.3014 18 10.52 18H22.875C23.0936 18 23.3062 17.9284 23.4803 17.7961C23.6544 17.6638 23.7803 17.4782 23.8388 17.2675L26.6838 7Z"
        fill="black" />
</svg>