<?xml version="1.0" encoding="UTF-8"?>
<svg id="Layer_1" data-name="Layer 1" xmlns="http://www.w3.org/2000/svg" viewBox="0 0 454 257">
  <defs>
    <style>
      .cls-1 {
        fill: #dfd3c6;
      }

      .cls-2 {
        fill: #f2e5d5;
      }
    </style>
  </defs>
  <path class="cls-2" d="M25.95,250.72c.35,0,.65.12.9.36.25.24.38.58.38,1v2.99c0,.35-.12.65-.35.9-.23.25-.54.38-.93.38H1.28c-.85,0-1.28-.43-1.28-1.28v-40.62c0-.35.12-.65.35-.9.23-.25.56-.38.99-.38h2.99c.37,0,.67.11.91.32.24.21.36.53.36.96v36.26h20.35Z"/>
  <path class="cls-2" d="M33.26,214.46c0-.35.11-.65.33-.9s.54-.38.94-.38h3.02c.35,0,.66.12.93.35.27.23.41.54.41.93v40.62c0,.85-.45,1.28-1.34,1.28h-3.02c-.85,0-1.28-.43-1.28-1.28v-40.62Z"/>
  <path class="cls-2" d="M51.13,214.26c.27.74.65,1.71,1.13,2.92.48,1.21,1.03,2.57,1.63,4.07.6,1.5,1.25,3.11,1.94,4.83.7,1.72,1.4,3.45,2.1,5.19s1.4,3.46,2.09,5.15c.69,1.69,1.32,3.25,1.9,4.68.58,1.43,1.1,2.7,1.55,3.81.45,1.11.81,1.96,1.06,2.56.23-.6.58-1.45,1.03-2.56.45-1.1.97-2.37,1.55-3.81.58-1.44,1.21-2.99,1.89-4.68.68-1.69,1.36-3.4,2.06-5.15.7-1.74,1.39-3.47,2.08-5.19.69-1.72,1.33-3.33,1.93-4.83s1.14-2.86,1.63-4.07c.48-1.21.86-2.19,1.13-2.92.13-.33.33-.59.58-.79.25-.19.57-.29.96-.29h3.05c.91,0,1.36.34,1.36,1.02,0,.08,0,.15-.03.23-.02.08-.04.17-.06.26-.02.1-.04.19-.06.29l-16.6,40.3c-.04.1-.09.21-.14.33-.06.13-.14.24-.23.35-.1.11-.24.2-.42.28s-.43.12-.74.12h-1.92c-.29,0-.53-.04-.71-.12-.18-.08-.32-.17-.42-.28-.1-.11-.17-.22-.23-.35-.06-.13-.11-.24-.14-.33l-16.75-40.3c-.02-.06-.04-.13-.06-.2-.04-.15-.06-.35-.06-.58,0-.68.44-1.02,1.33-1.02h3.08c.39,0,.71.1.96.29.25.19.43.46.55.79Z"/>
  <path class="cls-2" d="M119.19,213.18c.89,0,1.33.47,1.33,1.4v2.88c0,.37-.11.69-.33.96-.22.27-.57.41-1.06.41h-23.39v11.95h18.4c.35,0,.65.1.9.31s.38.55.38,1.03v2.97c0,.35-.11.66-.32.93s-.53.41-.96.41h-18.4v14.31h23.51c.89,0,1.34.46,1.34,1.37v2.99c0,.85-.43,1.28-1.28,1.28h-27.92c-.85,0-1.28-.41-1.28-1.22v-40.62c0-.89.43-1.34,1.28-1.34h27.8Z"/>
  <path class="cls-1" d="M160.25,216.32c.33.19.57.45.72.76.16.31.13.68-.09,1.1l-4.9,6.98c-.21.33-.44.52-.68.57s-.54-.03-.88-.25c-.95-.72-1.99-1.27-3.13-1.66-1.14-.39-2.35-.58-3.63-.58-1.59,0-3.05.3-4.38.9-1.34.6-2.49,1.42-3.45,2.47-.97,1.05-1.72,2.27-2.26,3.66-.54,1.4-.81,2.89-.81,4.48s.27,3.08.81,4.46c.54,1.39,1.3,2.6,2.26,3.63.97,1.04,2.12,1.86,3.45,2.46,1.33.6,2.79.9,4.38.9,1.28,0,2.5-.2,3.66-.6,1.16-.4,2.21-.95,3.16-1.67.35-.21.64-.3.87-.26.23.04.46.21.7.52l4.96,7.15c.21.43.24.79.09,1.08-.16.29-.4.53-.73.73-1.82,1.22-3.78,2.17-5.88,2.83-2.1.67-4.31,1-6.63,1-2.05,0-4.02-.26-5.91-.79s-3.65-1.27-5.3-2.24c-1.64-.97-3.14-2.13-4.48-3.47s-2.5-2.84-3.47-4.48c-.97-1.64-1.71-3.4-2.23-5.29s-.78-3.86-.78-5.92.26-4.03.78-5.92,1.27-3.66,2.23-5.32c.97-1.66,2.12-3.16,3.47-4.52s2.84-2.52,4.48-3.47c1.65-.96,3.41-1.71,5.3-2.24s3.86-.8,5.91-.8c2.32,0,4.51.33,6.57.97,2.06.65,4,1.58,5.82,2.81Z"/>
  <path class="cls-1" d="M163.71,234.81c0-2.05.26-4.03.78-5.92s1.27-3.66,2.24-5.32c.97-1.66,2.12-3.16,3.47-4.52,1.34-1.36,2.84-2.52,4.49-3.47s3.41-1.71,5.3-2.24,3.86-.8,5.91-.8,4,.27,5.9.8,3.67,1.28,5.31,2.24,3.15,2.12,4.5,3.47c1.35,1.36,2.51,2.86,3.47,4.52.96,1.66,1.7,3.43,2.24,5.32s.8,3.86.8,5.92-.27,4.03-.8,5.92-1.28,3.65-2.24,5.29c-.96,1.64-2.12,3.13-3.47,4.48-1.36,1.35-2.86,2.51-4.5,3.47-1.65.97-3.42,1.72-5.31,2.24s-3.86.79-5.9.79-4.02-.26-5.91-.79-3.65-1.27-5.3-2.24c-1.65-.97-3.14-2.13-4.49-3.47-1.35-1.35-2.5-2.84-3.47-4.48-.97-1.64-1.71-3.4-2.24-5.29s-.78-3.86-.78-5.92ZM174.94,234.79c0,1.61.27,3.11.81,4.51.54,1.4,1.3,2.61,2.27,3.65.98,1.04,2.13,1.85,3.46,2.44,1.33.59,2.8.89,4.4.89s3.08-.3,4.42-.89c1.34-.59,2.5-1.4,3.48-2.44.98-1.04,1.73-2.25,2.28-3.65.54-1.4.81-2.9.81-4.51s-.27-3.09-.81-4.49c-.54-1.4-1.3-2.63-2.28-3.68-.98-1.05-2.14-1.87-3.48-2.47-1.34-.6-2.82-.9-4.42-.9s-3.07.3-4.4.9-2.49,1.42-3.46,2.47c-.98,1.05-1.73,2.27-2.27,3.68-.54,1.41-.81,2.9-.81,4.49Z"/>
  <path class="cls-1" d="M217.6,214.46c.04-.35.17-.65.41-.9.23-.25.56-.38.99-.38h10.04c.72,0,1.18.37,1.39,1.1l7.89,26.4,7.95-26.4c.27-.74.76-1.1,1.48-1.1h9.93c.35,0,.66.12.94.36s.44.55.48.92c.68,6.82,1.37,13.59,2.08,20.31.71,6.72,1.4,13.49,2.08,20.31v.15c0,.76-.43,1.13-1.28,1.13h-8.21c-.89,0-1.35-.43-1.39-1.28l-2.52-22.48-6.53,22.62c-.04.19-.18.43-.42.7-.24.27-.48.41-.71.41h-7.63c-.23,0-.48-.13-.74-.39-.26-.26-.4-.5-.42-.71l-6.53-22.56-2.52,22.42c-.04.85-.51,1.28-1.42,1.28h-8.21c-.83,0-1.25-.43-1.25-1.28l4.15-40.62Z"/>
  <path class="cls-1" d="M270.39,214.52c0-.41.11-.73.32-.97s.53-.36.96-.36h18.54c1.34,0,2.59.19,3.77.55s2.26.88,3.25,1.53c.99.65,1.88,1.42,2.67,2.33.79.9,1.46,1.88,2.02,2.92.55,1.05.97,2.15,1.26,3.3s.43,2.32.43,3.5c0,1.74-.31,3.45-.94,5.12-.63,1.67-1.52,3.15-2.68,4.45-1.16,1.3-2.55,2.35-4.18,3.15-1.63.81-3.43,1.22-5.4,1.24h-8.79v13.84c0,.83-.45,1.25-1.34,1.25h-8.62c-.39,0-.7-.1-.93-.31-.23-.2-.35-.52-.35-.94v-40.59ZM292.24,227.25c0-.58-.1-1.16-.3-1.74-.2-.58-.5-1.1-.88-1.56-.39-.45-.86-.83-1.41-1.12-.55-.29-1.18-.44-1.87-.44h-6.15v9.71h6.15c.7,0,1.32-.14,1.89-.42.56-.28,1.03-.64,1.41-1.09.38-.45.67-.96.87-1.54.2-.58.3-1.18.3-1.8Z"/>
  <path class="cls-1" d="M308.9,214.43c0-.35.12-.65.35-.9.23-.25.55-.38.96-.38h8.59c.33,0,.63.12.9.35.27.23.42.54.44.93v31.64h15.96c.35,0,.65.12.9.35.25.23.38.55.38.96v7.65c0,.33-.11.63-.33.9s-.54.42-.94.44h-25.91c-.85,0-1.28-.43-1.28-1.28v-40.65Z"/>
  <path class="cls-1" d="M344.13,214.52c0-.41.11-.73.33-.97.22-.24.53-.36.94-.36h28.79c.42,0,.75.13.99.38.23.25.35.59.35,1.01v7.19c0,.33-.12.64-.35.94-.23.3-.57.45-1.01.45h-18.81v7.21h14.51c.37,0,.67.09.91.26s.36.47.36.87v6.28c0,.27-.11.53-.32.79s-.52.38-.93.38h-14.54v7.44h19.5c.87,0,1.3.45,1.3,1.33v7.31c0,.19-.08.37-.23.52-.08.54-.47.81-1.19.81h-29.34c-.39,0-.7-.1-.93-.31s-.35-.52-.35-.94v-40.59Z"/>
  <path class="cls-1" d="M380.95,214.46c0-.39.13-.69.39-.93.26-.23.59-.35.97-.35h31.23c.35,0,.66.11.93.32.27.21.42.53.46.96v7.22c0,.35-.12.68-.36,1s-.59.48-1.03.48h-10.01v31.84c0,.35-.13.66-.38.94-.25.28-.58.42-.98.42h-8.51c-.33,0-.64-.13-.93-.39-.29-.26-.43-.59-.43-.97v-31.84h-9.98c-.39,0-.71-.13-.97-.38-.26-.25-.39-.62-.39-1.1v-7.22Z"/>
  <path class="cls-1" d="M421.96,214.52c0-.41.11-.73.33-.97.22-.24.53-.36.94-.36h28.79c.42,0,.75.13.99.38.23.25.35.59.35,1.01v7.19c0,.33-.12.64-.35.94-.23.3-.57.45-1.01.45h-18.81v7.21h14.51c.37,0,.67.09.91.26s.36.47.36.87v6.28c0,.27-.11.53-.32.79s-.52.38-.93.38h-14.54v7.44h19.5c.87,0,1.3.45,1.3,1.33v7.31c0,.19-.08.37-.23.52-.08.54-.47.81-1.19.81h-29.34c-.39,0-.7-.1-.93-.31s-.35-.52-.35-.94v-40.59Z"/>
  <path class="cls-1" d="M218.92,158.8c32.63,2.08,61.4-15.75,75.41-42.5.91-1.73-.35-3.81-2.3-3.81h-15.96c-.85,0-1.64.43-2.12,1.14-11.37,16.63-30.78,27.32-52.57,26.36-30.53-1.33-55.65-25.94-57.63-56.49-2.28-35.21,25.66-64.58,60.32-64.58,25.64,0,47.59,16.09,56.36,38.71h-7.22c-1.08,0-1.64,1.29-.9,2.08l17.41,18.8c.49.53,1.32.53,1.81,0l17.41-18.8c.73-.79.17-2.08-.9-2.08h-7.72C290.81,24.4,260.24,0,224.06,0c-45.64,0-82.41,38.82-79.12,85.24,2.78,39.33,34.71,71.06,73.98,73.56Z"/>
  <path class="cls-2" d="M310.88,112.55c-1.14,0-2.15.69-2.58,1.75-13.92,33.36-46.77,55.46-83.16,55.46-49.68,0-90.1-40.5-90.1-90.28V3.88c0-1.56-1.26-2.82-2.82-2.82h-13.25c-1.55,0-2.82,1.26-2.82,2.82v75.61c0,60.21,48.89,109.19,108.98,109.19,45.92,0,87.16-29.09,102.63-72.38h0c.63-1.83-.72-3.74-2.66-3.74h-14.23Z"/>
</svg>