<?xml version="1.0" encoding="utf-8"?>
<svg width="71" height="36" viewBox="0 0 71 36" fill="none" xmlns="http://www.w3.org/2000/svg">
    <g clip-path="url(#clip0_60_1667)">
        <path
            d="M67.9112 17.0815L67.8741 17.1187C68.1343 16.4125 68.6546 16.1523 69.1006 16.1523C69.7325 16.1523 70.29 16.6355 70.29 17.3417C70.29 17.4904 70.29 17.6762 70.2157 17.8992C68.9148 21.2444 66.1643 22.9541 63.4882 23.2143C62.2617 25.2957 60.2546 26.8196 57.3926 26.8196C53.3041 26.8196 51.4829 23.586 51.4829 20.055C51.4829 15.7063 54.2334 10.8744 58.8422 10.8744C59.8457 10.8744 60.7006 11.0975 61.4068 11.3948C63.4882 12.1753 64.8263 14.8886 64.8263 17.7877C64.8263 18.7169 64.7519 19.6461 64.5289 20.5382C65.9042 20.055 67.205 18.9399 67.9112 17.0815ZM60.1431 13.9222V13.8851C59.3254 13.8851 58.8422 14.9629 58.8422 16.2638C58.8422 18.1594 59.8829 19.9063 61.5183 20.5382C61.7785 19.7205 61.89 18.7913 61.89 17.7134C61.89 15.632 61.2581 13.9222 60.1431 13.9222ZM57.4298 24.1063C58.4705 24.1063 59.5112 23.6603 60.3289 22.7311C57.913 21.6532 56.3891 19.1258 56.3891 16.7098C56.3891 15.8921 56.5378 15.0373 56.7608 14.2939C55.2741 15.5205 54.4192 17.9364 54.4192 20.055C54.4192 22.8054 55.7201 24.1063 57.4298 24.1063Z"
            fill="black" />
        <path
            d="M52.0568 17.0816L52.0196 17.1188C52.2798 16.4126 52.7258 16.1153 53.1718 16.1153C53.8037 16.1153 54.4355 16.6728 54.4355 17.379C54.4355 17.5648 54.3984 17.7135 54.324 17.8993C52.8745 21.4303 50.7187 25.556 47.2621 27.9719L47.1878 28.7153C46.7789 33.1755 44.5117 36.0002 41.6497 36.0002C39.4939 36.0002 38.2302 34.5135 38.2302 32.7666C38.2302 29.6073 41.4638 28.4551 44.4745 26.5224C44.5488 25.7418 44.586 24.8498 44.6231 23.8462C43.1364 25.4816 41.5382 26.1507 40.1258 26.1507C37.301 26.1507 34.9966 23.8462 34.9966 20.3153C34.9966 14.8887 38.5647 11.3206 42.5417 11.3206H42.5789C45.2922 11.3206 48.1913 12.7701 48.1913 15.3719C48.1913 16.2268 47.8196 20.8728 47.5223 24.4781C49.5293 22.5825 51.2019 19.4976 52.0568 17.0816ZM40.5346 23.4746C41.9099 23.4746 43.7683 22.6197 44.9205 18.4197C45.1063 17.4905 45.2178 16.6728 45.1807 15.7064C44.9577 14.7029 44.1028 14.1082 42.8762 14.1082C40.3488 14.1082 37.9329 16.5241 37.9329 20.2038C37.9329 22.4339 38.9736 23.4746 40.5346 23.4746ZM41.947 33.287H41.9842C42.7647 33.287 43.6196 32.7666 44.1771 29.4215C42.5417 30.3878 41.0178 31.3542 41.0178 32.5064C41.0178 32.9896 41.3895 33.287 41.947 33.287Z"
            fill="black" />
        <path
            d="M35.6488 17.0815L35.6117 17.1187C35.8718 16.4125 36.3922 16.1523 36.8382 16.1523C37.4701 16.1523 38.0276 16.6355 38.0276 17.3417C38.0276 17.4904 38.0276 17.6762 37.9533 17.8992C36.6524 21.2444 33.9019 22.9541 31.2258 23.2143C29.9993 25.2957 27.9922 26.8196 25.1302 26.8196C21.0417 26.8196 19.2205 23.586 19.2205 20.055C19.2205 15.7063 21.9709 10.8744 26.5798 10.8744C27.5833 10.8744 28.4382 11.0975 29.1444 11.3948C31.2258 12.1753 32.5639 14.8886 32.5639 17.7877C32.5639 18.7169 32.4895 19.6461 32.2665 20.5382C33.6418 20.055 34.9426 18.9399 35.6488 17.0815ZM27.8807 13.9222V13.8851C27.063 13.8851 26.5798 14.9629 26.5798 16.2638C26.5798 18.1594 27.6205 19.9063 29.2559 20.5382C29.5161 19.7205 29.6276 18.7913 29.6276 17.7134C29.6276 15.632 28.9957 13.9222 27.8807 13.9222ZM25.1674 24.1063C26.2081 24.1063 27.2488 23.6603 28.0665 22.7311C25.6506 21.6532 24.1267 19.1258 24.1267 16.7098C24.1267 15.8921 24.2754 15.0373 24.4984 14.2939C23.0117 15.5205 22.1568 17.9364 22.1568 20.055C22.1568 22.8054 23.4577 24.1063 25.1674 24.1063Z"
            fill="black" />
        <path
            d="M21.1096 15.9083C20.5892 15.9083 20.1432 16.1685 19.8458 16.8747C18.8795 19.3278 16.8723 23.4907 14.828 23.4907C13.5408 23.4907 12.5447 23.1996 11.5381 22.9054C10.5101 22.605 9.47133 22.3013 8.10044 22.3013C7.61724 22.3013 6.9482 22.3757 6.31633 22.4872C8.21991 19.8914 8.93105 16.7477 9.62013 10.8054C8.32267 10.7228 7.26726 10.4831 6.49798 10.241C5.67633 17.7775 4.74327 20.6511 1.33569 23.4907C0.889666 23.8624 0.666656 24.3828 0.666656 24.9032C0.666656 25.7209 1.37287 26.4271 2.26493 26.4271C2.56228 26.4271 2.89679 26.3156 3.23131 26.1669C5.12693 25.312 6.27916 25.089 7.69158 25.089C8.58975 25.089 9.66449 25.3459 10.8152 25.6208C12.1406 25.9376 13.5667 26.2784 14.9396 26.2784C17.9502 26.2784 19.9202 23.3421 22.1131 17.6552C22.2247 17.4694 22.2618 17.2464 22.2618 17.0605C22.2618 16.3543 21.7043 15.9083 21.1096 15.9083Z"
            fill="black" />
        <path fill-rule="evenodd" clip-rule="evenodd"
            d="M6.68657 8.70287C7.35966 8.93784 8.41048 9.2114 9.77291 9.29233L9.99592 9.29222C14.196 9.29222 16.9465 6.6904 16.9465 3.56821C16.9465 1.56109 15.3854 0 13.1924 0C10.2561 0 8.21182 2.00712 7.17109 5.98419C5.87018 5.27798 4.97813 4.01424 4.5321 2.41598C4.30908 1.63543 3.82589 1.15223 3.15684 1.15223C2.33913 1.15223 1.81876 1.78411 1.81876 2.63899C1.81876 5.16648 3.78872 7.58245 6.68789 8.69752L6.68657 8.70287ZM10.2189 6.57889C10.7764 4.01424 11.6685 2.78767 12.8579 2.78767C13.4898 2.78767 13.8986 3.15936 13.8986 3.8284C13.8986 5.05497 12.5977 6.50455 10.2189 6.57889Z"
            fill="black" />
    </g>
    <defs>
        <clipPath id="clip0_60_1667">
            <rect width="70" height="36" fill="white" transform="translate(0.666656)" />
        </clipPath>
    </defs>
</svg>