<?xml version="1.0" encoding="UTF-8"?>
<svg id="Text" xmlns="http://www.w3.org/2000/svg" viewBox="0 0 967 217">
  <defs>
    <style>
      .cls-1 {
        fill: #fff;
      }

      .cls-2 {
        fill: #f2e6d7;
      }
    </style>
  </defs>
  <polygon class="cls-2" points="127.86 166.52 0 166.52 0 12.86 250.46 12.86 250.46 17.99 5.14 17.99 5.14 161.39 127.86 161.39 127.86 166.52"/>
  <polygon class="cls-2" points="967 166.52 838.47 166.52 838.47 161.39 961.86 161.39 961.86 17.99 716.22 17.99 716.22 12.86 967 12.86 967 166.52"/>
  <g>
    <path class="cls-1" d="M60.99,99.63v-18.53c0-8.41-1.05-18.24-2.96-24.17l28.72.1,32.53,34.96h1.34v-11.56c0-8.6-1.43-19.01-2.86-23.5h30.81c-1.72,5.83-2.86,15.76-2.86,24.17v42.7h-22.8l-35.58-37.63h-1.43v11.46c0,8.79,1.43,21.2,2.96,26.17h-30.82c1.72-5.83,2.96-15.76,2.96-24.17Z"/>
    <path class="cls-1" d="M159.05,93.52v-12.42c0-8.41-1.15-18.24-2.86-24.17h30.72c-1.72,5.92-2.86,16.24-2.86,24.64v7.55c0,8.6,5.34,14.61,14.22,14.61s14.22-6.02,14.22-14.61v-7.55c0-8.41-1.15-18.72-2.96-24.64h30.81c-1.81,5.92-2.86,15.76-2.86,24.17v12.42c0,20.25-12.78,31.71-39.3,31.71s-39.12-10.51-39.12-31.71Z"/>
    <path class="cls-1" d="M271.61,99.63v-21.01h-10.4c-7.92,0-13.26.67-18.03,2.67l4.39-24.36h72.7l4.48,24.36c-4.58-1.91-10.21-2.67-18.03-2.67h-10.11v21.01c0,8.4,1.05,18.24,2.86,24.17h-30.81c1.91-5.92,2.96-15.76,2.96-24.17Z"/>
    <path class="cls-1" d="M361.62,96.39c-1.62,0-4.77.29-5.92.67v3.92c0,8.4.95,16.91,2.86,22.83h-30.82c1.91-5.92,2.96-15.76,2.96-24.17v-18.53c0-8.41-1.15-18.24-2.96-24.17h51.8c18.41,0,31.48,5.73,31.48,17.57s-12.78,17.86-30.91,17.86h-3.62v.96h.29c10.68,0,11.45,7.36,21.94,7.36,8.59,0,13.55-4.68,15.84-9.84l.19,27.99c-2.29,3.63-8.68,6.4-14.98,6.4-28.05,0-17.74-28.85-38.16-28.85ZM376.41,88.74c5.72,0,9.64-1.81,9.64-5.35s-3.91-5.25-9.35-5.25h-20.99v10.6h20.7Z"/>
    <path class="cls-1" d="M424.74,99.63v-18.53c0-8.41-1.14-18.34-2.86-24.17h30.82c-1.81,5.83-2.96,15.76-2.96,24.17v18.53c0,8.4,1.05,18.24,2.96,24.17h-30.82c1.81-5.92,2.86-15.76,2.86-24.17Z"/>
    <path class="cls-1" d="M464.61,99.63v-18.53c0-8.41-1.05-18.24-2.86-24.17h33.2l14.6,26.55c2.58,4.58,4.01,7.45,6.2,13.56h1.15c2.1-5.92,3.34-8.41,6.11-13.56l14.79-26.55h32.44c-1.81,5.92-2.86,15.76-2.86,24.17v18.53c0,8.4,1.15,18.34,2.86,24.17h-30.72c1.53-5.26,2.86-16.24,2.86-24.84v-13.47h-1.43l-21.75,38.3h-6.77l-21.75-38.3h-.95v13.47c0,8.6,1.24,19.58,2.86,24.84h-30.81c1.72-5.83,2.86-15.76,2.86-24.17Z"/>
    <path class="cls-1" d="M585.72,99.63l8.78-18.53c3.43-8.41,6.2-18.24,7.06-24.17h39.69c.86,6.11,3.72,16.14,6.96,24.07l8.78,18.63c3.43,8.4,8.3,18.24,12.21,24.17h-31.1c-.29-3.44-1.15-7.55-2.96-13.18l-1.14-2.39h-25.28l-1.15,2.48c-1.72,5.64-2.67,9.74-2.96,13.09h-31.1c3.91-5.92,8.78-15.86,12.21-24.17ZM629.61,98.1l-4.58-9.93c-1.62-4.01-2.29-7.35-3.05-11.65h-1.24c-.95,4.58-1.43,7.36-3.15,11.65l-4.48,9.93h16.51Z"/>
    <path class="cls-1" d="M687.82,99.63v-21.01h-10.4c-7.92,0-13.26.67-18.03,2.67l4.39-24.36h72.7l4.48,24.36c-4.58-1.91-10.21-2.67-18.03-2.67h-10.11v21.01c0,8.4,1.05,18.24,2.86,24.17h-30.81c1.91-5.92,2.96-15.76,2.96-24.17Z"/>
    <path class="cls-1" d="M743.69,90.37c0-24.07,21.75-34.86,46.75-34.86,13.17,0,24.52,2.67,31.77,5.92l-1.91,23.31c-4.96-4.11-14.88-7.55-26.14-7.55-14.02,0-25.19,4.49-25.19,13.18s11.83,13.18,27.38,13.18c11.64,0,21.75-3.15,28.72-8.21v25.41c-9.06,2.67-19.46,4.49-33.96,4.49-24.9,0-47.41-10.7-47.41-34.86Z"/>
    <path class="cls-1" d="M835.6,99.63v-18.53c0-8.41-1.24-18.24-2.96-24.17h30.82c-1.91,6.21-2.96,14.71-2.96,23.02v4.58h27v-4.58c0-8.41-1.15-17.1-2.86-23.02h30.82c-1.81,5.83-2.96,15.76-2.96,24.17v18.53c0,8.4,1.05,18.24,2.96,24.17h-30.82c1.53-5.92,2.86-14.61,2.86-23.02v-5.35h-27v5.35c0,8.12.76,16.62,2.96,23.02h-30.82c1.91-5.83,2.96-15.76,2.96-24.17Z"/>
    <path class="cls-1" d="M923.84,60.14h-3.2v-2.47h9.4v2.47h-3.2v10.11h-2.99v-10.11ZM930.62,57.67h4.29l1.41,7.5,1.35-7.5h4.29v12.58h-2.67l.06-9.64-1.79,9.64h-2.58l-1.82-9.55.06,9.55h-2.58v-12.58Z"/>
  </g>
  <g>
    <path class="cls-2" d="M265.14,17.14c0-7.42,3.33-11.38,8.95-11.38s8.95,3.97,8.95,11.38-3.33,11.38-8.95,11.38-8.95-4.01-8.95-11.38ZM277.3,17.14c0-4.96-1.11-7.06-3.21-7.06s-3.25,2.1-3.25,7.06,1.15,7.06,3.25,7.06,3.21-2.1,3.21-7.06Z"/>
    <path class="cls-2" d="M284.65,22.65V6.27h5.74v15.55c0,1.51.91,2.38,2.3,2.38.99,0,1.9-.48,2.46-1.23V6.27h5.74v21.78h-5.74v-1.86c-1.11,1.39-2.77,2.3-4.71,2.3-3.61,0-5.78-2.34-5.78-5.83Z"/>
    <path class="cls-2" d="M303.16,6.27h5.78v2.9c1.11-2.14,2.93-3.29,5.15-3.29h.32v5.55c-.48-.12-.99-.2-1.5-.2-1.59,0-3.09.59-3.96,1.71v15.11h-5.78V6.27Z"/>
    <path class="cls-2" d="M323.09,6.27h5.78v2.9c1.11-2.14,2.93-3.29,5.15-3.29h.32v5.55c-.48-.12-.99-.2-1.5-.2-1.59,0-3.09.59-3.96,1.71v15.11h-5.78V6.27Z"/>
    <path class="cls-2" d="M334.97,17.14c0-7.22,3.37-11.38,8.87-11.38,5.11,0,8.52,3.93,8.52,11.42v.48h-11.77c.08,4.68,1.23,6.7,3.29,6.7,1.74,0,2.77-1.47,3.09-4.72h5.27c-.59,5.75-3.53,8.88-8.4,8.88-5.51,0-8.87-4.12-8.87-11.38ZM340.75,14.28h6.1c-.48-3.05-1.47-4.4-3.01-4.4-1.66,0-2.73,1.39-3.09,4.4Z"/>
    <path class="cls-2" d="M352.07,6.27h5.78l1.7,7.85,1.58,7.85,1.66-7.85,1.7-7.85h5.59l-5.51,21.78h-7.05l-5.47-21.78Z"/>
    <path class="cls-2" d="M369.81,17.14c0-7.42,3.33-11.38,8.95-11.38s8.95,3.97,8.95,11.38-3.33,11.38-8.95,11.38-8.95-4.01-8.95-11.38ZM381.97,17.14c0-4.96-1.11-7.06-3.21-7.06s-3.25,2.1-3.25,7.06,1.15,7.06,3.25,7.06,3.21-2.1,3.21-7.06Z"/>
    <path class="cls-2" d="M389.43.28h5.74v27.77h-5.74V.28Z"/>
    <path class="cls-2" d="M397.36,22.65V6.27h5.74v15.55c0,1.51.91,2.38,2.3,2.38.99,0,1.9-.48,2.46-1.23V6.27h5.74v21.78h-5.74v-1.86c-1.11,1.39-2.77,2.3-4.71,2.3-3.61,0-5.78-2.34-5.78-5.83Z"/>
    <path class="cls-2" d="M418.42,23.44v-12.93h-3.6v-4.24h3.6V2.18h5.7v4.09h4.36v4.24h-4.36v11.62c0,1.15.52,1.63,1.86,1.63h2.5v4.28h-5.47c-3.05,0-4.6-1.67-4.6-4.6Z"/>
    <path class="cls-2" d="M429.87,0h5.74v4.76h-5.74V0ZM429.87,6.27h5.74v21.78h-5.74V6.27Z"/>
    <path class="cls-2" d="M437.26,17.14c0-7.42,3.33-11.38,8.95-11.38s8.95,3.97,8.95,11.38-3.33,11.38-8.95,11.38-8.95-4.01-8.95-11.38ZM449.42,17.14c0-4.96-1.11-7.06-3.21-7.06s-3.25,2.1-3.25,7.06,1.15,7.06,3.25,7.06,3.21-2.1,3.21-7.06Z"/>
    <path class="cls-2" d="M456.83,6.27h5.78v1.86c1.11-1.39,2.73-2.3,4.71-2.3,3.56,0,5.78,2.34,5.78,5.79v16.42h-5.78v-15.55c0-1.55-.87-2.38-2.3-2.38-.95,0-1.82.44-2.42,1.19v16.74h-5.78V6.27Z"/>
    <path class="cls-2" d="M474.59,22.53c0-3.45,2.5-5.12,6.34-6.82,3.17-1.39,4.32-2.38,4.32-3.85,0-1.11-.83-1.9-2.14-1.9-1.78,0-2.89,1.31-3.05,3.69h-5.15c.28-4.76,3.6-7.89,8.4-7.89s7.53,2.62,7.53,7.3v14.99h-5.63v-1.86c-1.15,1.35-2.81,2.14-4.71,2.14-3.57,0-5.9-2.26-5.9-5.79ZM482.48,24.35c1.07,0,2.1-.48,2.73-1.27v-3.97l.04-2.02c-.51.44-1.15.79-2.02,1.23-2.06,1.11-3.01,1.98-3.01,3.65,0,1.43.87,2.38,2.26,2.38Z"/>
    <path class="cls-2" d="M493.05,6.27h5.78v2.9c1.11-2.14,2.93-3.29,5.15-3.29h.32v5.55c-.48-.12-.99-.2-1.5-.2-1.59,0-3.09.59-3.96,1.71v15.11h-5.78V6.27Z"/>
    <path class="cls-2" d="M507.08,31.14h2.06c1.15,0,1.74-.52,2.06-1.47l.04-.2-6.3-23.2h5.86l3.29,14.2,3.37-14.2h5.66l-6.81,24.47c-.91,3.05-2.81,4.56-5.7,4.56h-3.53v-4.16Z"/>
    <path class="cls-2" d="M534.23,23.44v-12.93h-3.6v-4.24h3.6V2.18h5.7v4.09h4.36v4.24h-4.36v11.62c0,1.15.52,1.63,1.86,1.63h2.5v4.28h-5.47c-3.05,0-4.6-1.67-4.6-4.6Z"/>
    <path class="cls-2" d="M544.74,17.14c0-7.22,3.37-11.38,8.87-11.38,5.11,0,8.52,3.93,8.52,11.42v.48h-11.77c.08,4.68,1.23,6.7,3.29,6.7,1.74,0,2.77-1.47,3.09-4.72h5.27c-.59,5.75-3.53,8.88-8.4,8.88-5.51,0-8.87-4.12-8.87-11.38ZM550.52,14.28h6.1c-.48-3.05-1.47-4.4-3.01-4.4-1.66,0-2.73,1.39-3.09,4.4Z"/>
    <path class="cls-2" d="M563.18,17.14c0-7.42,3.33-11.38,8.87-11.38,4.79,0,7.92,3.13,8.44,9.24h-5.39c-.32-3.41-1.31-4.92-3.01-4.92-2.06,0-3.21,2.1-3.21,7.06s1.11,7.06,3.21,7.06c1.78,0,2.77-1.63,3.05-5.39h5.39c-.4,6.39-3.53,9.72-8.48,9.72-5.55,0-8.87-3.97-8.87-11.38Z"/>
    <path class="cls-2" d="M582.01.28h5.78v7.81c1.11-1.35,2.73-2.26,4.67-2.26,3.6,0,5.82,2.34,5.82,5.79v16.42h-5.78v-15.55c0-1.55-.87-2.38-2.3-2.38-.95,0-1.82.44-2.42,1.19v16.74h-5.78V.28Z"/>
    <path class="cls-2" d="M600.54,6.27h5.78v1.86c1.11-1.39,2.73-2.3,4.71-2.3,3.56,0,5.78,2.34,5.78,5.79v16.42h-5.78v-15.55c0-1.55-.87-2.38-2.3-2.38-.95,0-1.82.44-2.42,1.19v16.74h-5.78V6.27Z"/>
    <path class="cls-2" d="M618.42,17.14c0-7.42,3.33-11.38,8.95-11.38s8.95,3.97,8.95,11.38-3.33,11.38-8.95,11.38-8.95-4.01-8.95-11.38ZM630.58,17.14c0-4.96-1.11-7.06-3.21-7.06s-3.25,2.1-3.25,7.06,1.15,7.06,3.25,7.06,3.21-2.1,3.21-7.06Z"/>
    <path class="cls-2" d="M638.04.28h5.74v27.77h-5.74V.28Z"/>
    <path class="cls-2" d="M645.43,17.14c0-7.42,3.33-11.38,8.95-11.38s8.95,3.97,8.95,11.38-3.33,11.38-8.95,11.38-8.95-4.01-8.95-11.38ZM657.6,17.14c0-4.96-1.11-7.06-3.21-7.06s-3.25,2.1-3.25,7.06,1.15,7.06,3.25,7.06,3.21-2.1,3.21-7.06Z"/>
    <path class="cls-2" d="M664.39,17.06c0-7.02,2.85-11.22,7.41-11.22,2.06,0,3.73.99,4.87,2.86v-2.42h5.78v21.14c0,5.71-3.53,8.33-8.95,8.33-4.83,0-8.16-2.22-8.68-6.47h5.43c.32,1.78,1.39,2.66,3.25,2.66s3.17-1.07,3.17-3.49v-3.05c-1.15,1.82-2.81,2.82-4.87,2.82-4.64,0-7.41-4.05-7.41-11.15ZM676.71,17.02c0-4.88-1.15-6.98-3.33-6.98s-3.25,2.1-3.25,6.98,1.11,6.98,3.25,6.98,3.33-2.06,3.33-6.98Z"/>
    <path class="cls-2" d="M685.5,31.14h2.06c1.15,0,1.74-.52,2.06-1.47l.04-.2-6.3-23.2h5.86l3.29,14.2,3.37-14.2h5.66l-6.81,24.47c-.91,3.05-2.81,4.56-5.7,4.56h-3.53v-4.16Z"/>
  </g>
  <g>
    <path class="cls-2" d="M142.53,144.8h5.78v8.41c1.15-1.86,2.81-2.86,4.87-2.86,4.64,0,7.41,4.13,7.41,11.31s-2.85,11.34-7.41,11.34c-2.06,0-3.72-.99-4.87-2.9v2.46h-5.78v-27.77ZM154.85,161.7c0-4.96-1.11-7.06-3.25-7.06s-3.33,2.1-3.33,7.06,1.15,7.06,3.33,7.06,3.25-2.1,3.25-7.06Z"/>
    <path class="cls-2" d="M162.31,144.8h5.74v27.77h-5.74v-27.77Z"/>
    <path class="cls-2" d="M169.7,161.66c0-7.22,3.37-11.38,8.87-11.38,5.11,0,8.52,3.93,8.52,11.42v.48h-11.77c.08,4.68,1.23,6.7,3.29,6.7,1.74,0,2.77-1.47,3.09-4.72h5.27c-.59,5.75-3.53,8.88-8.4,8.88-5.51,0-8.87-4.12-8.87-11.38ZM175.49,158.8h6.1c-.48-3.05-1.47-4.4-3.01-4.4-1.66,0-2.73,1.39-3.09,4.4Z"/>
    <path class="cls-2" d="M188.7,150.79h5.78v1.86c1.11-1.39,2.73-2.3,4.71-2.3,3.56,0,5.78,2.34,5.78,5.79v16.42h-5.78v-15.55c0-1.55-.87-2.38-2.3-2.38-.95,0-1.82.44-2.42,1.19v16.74h-5.78v-21.78Z"/>
    <path class="cls-2" d="M206.64,161.7c0-7.1,2.85-11.34,7.41-11.34,2.06,0,3.73.99,4.87,2.9v-8.45h5.78v27.77h-5.78v-2.42c-1.15,1.86-2.81,2.86-4.87,2.86-4.64,0-7.41-4.13-7.41-11.31ZM218.96,161.66c0-4.96-1.15-7.06-3.33-7.06s-3.25,2.1-3.25,7.06,1.11,7.06,3.25,7.06,3.33-2.1,3.33-7.06Z"/>
    <path class="cls-2" d="M226.27,164.67h5.07c.32,2.94,1.51,4.28,3.33,4.28,1.62,0,2.42-.83,2.42-2.06,0-1.82-1.94-2.54-4.12-3.37-2.97-1.11-6.42-2.38-6.42-6.78,0-3.69,2.81-6.46,7.41-6.46,4.95,0,7.84,2.97,8.24,7.69h-4.99c-.32-2.62-1.55-3.61-3.17-3.61-1.35,0-2.14.83-2.14,1.86,0,1.55,1.78,2.22,3.92,3.01,3.01,1.15,6.69,2.54,6.69,7.1,0,3.73-2.93,6.7-7.69,6.7s-8.16-2.66-8.56-8.37Z"/>
    <path class="cls-2" d="M251.19,150.79h5.78v2.42c1.15-1.86,2.81-2.86,4.87-2.86,4.64,0,7.41,4.13,7.41,11.31s-2.85,11.34-7.41,11.34c-2.06,0-3.72-.99-4.87-2.9v9.72h-5.78v-29.03ZM263.51,161.7c0-4.96-1.11-7.06-3.25-7.06s-3.33,2.1-3.33,7.06,1.15,7.06,3.33,7.06,3.25-2.1,3.25-7.06Z"/>
    <path class="cls-2" d="M270.97,144.8h5.74v27.77h-5.74v-27.77Z"/>
    <path class="cls-2" d="M278.25,167.06c0-3.45,2.5-5.12,6.34-6.82,3.17-1.39,4.32-2.38,4.32-3.85,0-1.11-.83-1.9-2.14-1.9-1.78,0-2.89,1.31-3.05,3.69h-5.15c.28-4.76,3.6-7.89,8.4-7.89s7.53,2.62,7.53,7.3v14.99h-5.63v-1.86c-1.15,1.35-2.81,2.14-4.71,2.14-3.57,0-5.9-2.26-5.9-5.79ZM286.14,168.88c1.07,0,2.1-.48,2.73-1.27v-3.97l.04-2.02c-.51.44-1.15.79-2.02,1.23-2.06,1.11-3.01,1.98-3.01,3.65,0,1.43.87,2.38,2.26,2.38Z"/>
    <path class="cls-2" d="M296.71,150.79h5.78v1.86c1.11-1.39,2.73-2.3,4.71-2.3,3.56,0,5.78,2.34,5.78,5.79v16.42h-5.78v-15.55c0-1.55-.87-2.38-2.3-2.38-.95,0-1.82.44-2.42,1.19v16.74h-5.78v-21.78Z"/>
    <path class="cls-2" d="M317.76,167.97v-12.93h-3.6v-4.24h3.6v-4.09h5.7v4.09h4.36v4.24h-4.36v11.62c0,1.15.52,1.63,1.86,1.63h2.5v4.28h-5.47c-3.05,0-4.6-1.67-4.6-4.6Z"/>
    <path class="cls-2" d="M336.47,150.79h5.78v2.42c1.15-1.86,2.81-2.86,4.87-2.86,4.64,0,7.41,4.13,7.41,11.31s-2.85,11.34-7.41,11.34c-2.06,0-3.72-.99-4.87-2.9v9.72h-5.78v-29.03ZM348.79,161.7c0-4.96-1.11-7.06-3.25-7.06s-3.33,2.1-3.33,7.06,1.15,7.06,3.33,7.06,3.25-2.1,3.25-7.06Z"/>
    <path class="cls-2" d="M356.24,150.79h5.78v2.9c1.11-2.14,2.93-3.29,5.15-3.29h.32v5.55c-.48-.12-.99-.2-1.5-.2-1.59,0-3.09.6-3.96,1.71v15.11h-5.78v-21.78Z"/>
    <path class="cls-2" d="M368.12,161.66c0-7.42,3.33-11.38,8.95-11.38s8.95,3.97,8.95,11.38-3.33,11.38-8.95,11.38-8.95-4.01-8.95-11.38ZM380.28,161.66c0-4.96-1.11-7.06-3.21-7.06s-3.25,2.1-3.25,7.06,1.15,7.06,3.25,7.06,3.21-2.1,3.21-7.06Z"/>
    <path class="cls-2" d="M390.12,167.97v-12.93h-3.6v-4.24h3.6v-4.09h5.7v4.09h4.36v4.24h-4.36v11.62c0,1.15.52,1.63,1.86,1.63h2.5v4.28h-5.47c-3.05,0-4.6-1.67-4.6-4.6Z"/>
    <path class="cls-2" d="M400.63,161.66c0-7.22,3.37-11.38,8.87-11.38,5.11,0,8.52,3.93,8.52,11.42v.48h-11.77c.08,4.68,1.23,6.7,3.29,6.7,1.74,0,2.77-1.47,3.09-4.72h5.27c-.59,5.75-3.53,8.88-8.4,8.88-5.51,0-8.87-4.12-8.87-11.38ZM406.42,158.8h6.1c-.48-3.05-1.47-4.4-3.01-4.4-1.66,0-2.73,1.39-3.09,4.4Z"/>
    <path class="cls-2" d="M419.69,144.53h5.74v4.76h-5.74v-4.76ZM419.69,150.79h5.74v21.78h-5.74v-21.78Z"/>
    <path class="cls-2" d="M427.64,150.79h5.78v1.86c1.11-1.39,2.73-2.3,4.71-2.3,3.56,0,5.78,2.34,5.78,5.79v16.42h-5.78v-15.55c0-1.55-.87-2.38-2.3-2.38-.95,0-1.82.44-2.42,1.19v16.74h-5.78v-21.78Z"/>
    <path class="cls-2" d="M445.42,164.67h5.07c.32,2.94,1.51,4.28,3.33,4.28,1.62,0,2.42-.83,2.42-2.06,0-1.82-1.94-2.54-4.12-3.37-2.97-1.11-6.42-2.38-6.42-6.78,0-3.69,2.81-6.46,7.41-6.46,4.95,0,7.84,2.97,8.24,7.69h-4.99c-.32-2.62-1.55-3.61-3.17-3.61-1.35,0-2.14.83-2.14,1.86,0,1.55,1.78,2.22,3.92,3.01,3.01,1.15,6.69,2.54,6.69,7.1,0,3.73-2.93,6.7-7.69,6.7s-8.16-2.66-8.56-8.37Z"/>
    <path class="cls-2" d="M473.43,167.97v-12.93h-3.6v-4.24h3.6v-4.09h5.7v4.09h4.36v4.24h-4.36v11.62c0,1.15.52,1.63,1.86,1.63h2.5v4.28h-5.47c-3.05,0-4.6-1.67-4.6-4.6Z"/>
    <path class="cls-2" d="M483.96,161.66c0-7.42,3.33-11.38,8.95-11.38s8.95,3.97,8.95,11.38-3.33,11.38-8.95,11.38-8.95-4.01-8.95-11.38ZM496.12,161.66c0-4.96-1.11-7.06-3.21-7.06s-3.25,2.1-3.25,7.06,1.15,7.06,3.25,7.06,3.21-2.1,3.21-7.06Z"/>
    <path class="cls-2" d="M510.63,150.79h5.74v2.02c1.03-1.47,2.65-2.46,4.6-2.46,2.1,0,3.68,1.03,4.52,2.7,1.03-1.55,2.81-2.7,4.99-2.7,3.41,0,5.43,2.34,5.43,5.79v16.42h-5.71v-15.83c0-1.39-.75-2.1-1.98-2.1-.83,0-1.55.4-2.06,1.03v16.9h-5.74v-15.83c0-1.39-.71-2.1-1.9-2.1-.87,0-1.63.44-2.14,1.11v16.82h-5.74v-21.78Z"/>
    <path class="cls-2" d="M538.2,144.53h5.74v4.76h-5.74v-4.76ZM538.2,150.79h5.74v21.78h-5.74v-21.78Z"/>
    <path class="cls-2" d="M546.15,150.79h5.78v2.9c1.11-2.14,2.93-3.29,5.15-3.29h.32v5.55c-.48-.12-.99-.2-1.5-.2-1.59,0-3.09.6-3.96,1.71v15.11h-5.78v-21.78Z"/>
    <path class="cls-2" d="M558.58,150.79h5.78v2.9c1.11-2.14,2.93-3.29,5.15-3.29h.32v5.55c-.48-.12-.99-.2-1.5-.2-1.59,0-3.09.6-3.96,1.71v15.11h-5.78v-21.78Z"/>
    <path class="cls-2" d="M570.47,161.66c0-7.42,3.33-11.38,8.95-11.38s8.95,3.97,8.95,11.38-3.33,11.38-8.95,11.38-8.95-4.01-8.95-11.38ZM582.63,161.66c0-4.96-1.11-7.06-3.21-7.06s-3.25,2.1-3.25,7.06,1.15,7.06,3.25,7.06,3.21-2.1,3.21-7.06Z"/>
    <path class="cls-2" d="M590.03,150.79h5.78v2.9c1.11-2.14,2.93-3.29,5.15-3.29h.32v5.55c-.48-.12-.99-.2-1.5-.2-1.59,0-3.09.6-3.96,1.71v15.11h-5.78v-21.78Z"/>
    <path class="cls-2" d="M609.96,144.8h5.78v7.82c1.11-1.35,2.73-2.26,4.67-2.26,3.6,0,5.82,2.34,5.82,5.79v16.42h-5.78v-15.55c0-1.55-.87-2.38-2.3-2.38-.95,0-1.82.44-2.42,1.19v16.74h-5.78v-27.77Z"/>
    <path class="cls-2" d="M628.44,167.17v-16.38h5.74v15.55c0,1.51.91,2.38,2.3,2.38.99,0,1.9-.48,2.46-1.23v-16.7h5.74v21.78h-5.74v-1.86c-1.11,1.39-2.77,2.3-4.71,2.3-3.61,0-5.78-2.34-5.78-5.83Z"/>
    <path class="cls-2" d="M646.96,150.79h5.74v2.02c1.03-1.47,2.65-2.46,4.6-2.46,2.1,0,3.68,1.03,4.52,2.7,1.03-1.55,2.81-2.7,4.99-2.7,3.41,0,5.43,2.34,5.43,5.79v16.42h-5.71v-15.83c0-1.39-.75-2.1-1.98-2.1-.83,0-1.55.4-2.06,1.03v16.9h-5.74v-15.83c0-1.39-.71-2.1-1.9-2.1-.87,0-1.63.44-2.14,1.11v16.82h-5.74v-21.78Z"/>
    <path class="cls-2" d="M673.76,167.06c0-3.45,2.5-5.12,6.34-6.82,3.17-1.39,4.32-2.38,4.32-3.85,0-1.11-.83-1.9-2.14-1.9-1.78,0-2.89,1.31-3.05,3.69h-5.15c.28-4.76,3.6-7.89,8.4-7.89s7.53,2.62,7.53,7.3v14.99h-5.63v-1.86c-1.15,1.35-2.81,2.14-4.71,2.14-3.57,0-5.9-2.26-5.9-5.79ZM681.64,168.88c1.07,0,2.1-.48,2.73-1.27v-3.97l.04-2.02c-.51.44-1.15.79-2.02,1.23-2.06,1.11-3.01,1.98-3.01,3.65,0,1.43.87,2.38,2.26,2.38Z"/>
    <path class="cls-2" d="M692.21,150.79h5.78v1.86c1.11-1.39,2.73-2.3,4.71-2.3,3.56,0,5.78,2.34,5.78,5.79v16.42h-5.78v-15.55c0-1.55-.87-2.38-2.3-2.38-.95,0-1.82.44-2.42,1.19v16.74h-5.78v-21.78Z"/>
    <path class="cls-2" d="M717.65,150.79h5.74v2.02c1.03-1.47,2.65-2.46,4.6-2.46,2.1,0,3.68,1.03,4.52,2.7,1.03-1.55,2.81-2.7,4.99-2.7,3.41,0,5.43,2.34,5.43,5.79v16.42h-5.71v-15.83c0-1.39-.75-2.1-1.98-2.1-.83,0-1.55.4-2.06,1.03v16.9h-5.74v-15.83c0-1.39-.71-2.1-1.9-2.1-.87,0-1.62.44-2.14,1.11v16.82h-5.74v-21.78Z"/>
    <path class="cls-2" d="M745.17,167.17v-16.38h5.74v15.55c0,1.51.91,2.38,2.3,2.38.99,0,1.9-.48,2.46-1.23v-16.7h5.74v21.78h-5.74v-1.86c-1.11,1.39-2.77,2.3-4.71,2.3-3.61,0-5.78-2.34-5.78-5.83Z"/>
    <path class="cls-2" d="M762.99,164.67h5.07c.32,2.94,1.51,4.28,3.33,4.28,1.62,0,2.42-.83,2.42-2.06,0-1.82-1.94-2.54-4.12-3.37-2.97-1.11-6.42-2.38-6.42-6.78,0-3.69,2.81-6.46,7.41-6.46,4.95,0,7.84,2.97,8.24,7.69h-4.99c-.32-2.62-1.55-3.61-3.17-3.61-1.35,0-2.14.83-2.14,1.86,0,1.55,1.78,2.22,3.92,3.01,3.01,1.15,6.69,2.54,6.69,7.1,0,3.73-2.93,6.7-7.69,6.7s-8.16-2.66-8.56-8.37Z"/>
    <path class="cls-2" d="M780.11,161.66c0-7.42,3.33-11.38,8.87-11.38,4.79,0,7.92,3.13,8.44,9.24h-5.39c-.32-3.41-1.31-4.92-3.01-4.92-2.06,0-3.21,2.1-3.21,7.06s1.11,7.06,3.21,7.06c1.78,0,2.77-1.63,3.05-5.4h5.39c-.4,6.39-3.53,9.72-8.48,9.72-5.55,0-8.87-3.97-8.87-11.38Z"/>
    <path class="cls-2" d="M799,144.8h5.74v27.77h-5.74v-27.77Z"/>
    <path class="cls-2" d="M806.39,161.66c0-7.22,3.37-11.38,8.87-11.38,5.11,0,8.52,3.93,8.52,11.42v.48h-11.77c.08,4.68,1.23,6.7,3.29,6.7,1.74,0,2.77-1.47,3.09-4.72h5.27c-.59,5.75-3.53,8.88-8.4,8.88-5.51,0-8.87-4.12-8.87-11.38ZM812.18,158.8h6.1c-.48-3.05-1.47-4.4-3.01-4.4-1.66,0-2.73,1.39-3.09,4.4Z"/>
    <path class="cls-2" d="M168.39,191.77h-3.53v-4.24h3.53v-1.51c0-3.13,1.66-4.92,4.95-4.92h4.83v3.89h-2.38c-1.23,0-1.66.48-1.66,1.55v.99h4.04v4.24h-4.04v17.53h-5.74v-17.53Z"/>
    <path class="cls-2" d="M178.64,198.4c0-7.42,3.33-11.38,8.95-11.38s8.95,3.97,8.95,11.38-3.33,11.38-8.95,11.38-8.95-4.01-8.95-11.38ZM190.8,198.4c0-4.96-1.11-7.06-3.21-7.06s-3.25,2.1-3.25,7.06,1.15,7.06,3.25,7.06,3.21-2.1,3.21-7.06Z"/>
    <path class="cls-2" d="M198.21,187.53h5.78v2.9c1.11-2.14,2.93-3.29,5.15-3.29h.32v5.55c-.48-.12-.99-.2-1.5-.2-1.59,0-3.09.6-3.96,1.71v15.11h-5.78v-21.78Z"/>
    <path class="cls-2" d="M218.14,203.91v-16.38h5.74v15.55c0,1.51.91,2.38,2.3,2.38.99,0,1.9-.48,2.46-1.23v-16.7h5.74v21.78h-5.74v-1.86c-1.11,1.39-2.77,2.3-4.71,2.3-3.61,0-5.78-2.34-5.78-5.83Z"/>
    <path class="cls-2" d="M236.65,187.53h5.78v1.86c1.11-1.39,2.73-2.3,4.71-2.3,3.56,0,5.78,2.34,5.78,5.79v16.42h-5.78v-15.55c0-1.55-.87-2.38-2.3-2.38-.95,0-1.82.44-2.42,1.19v16.74h-5.78v-21.78Z"/>
    <path class="cls-2" d="M255.18,187.53h5.78v2.9c1.11-2.14,2.93-3.29,5.15-3.29h.32v5.55c-.48-.12-.99-.2-1.5-.2-1.59,0-3.09.6-3.96,1.71v15.11h-5.78v-21.78Z"/>
    <path class="cls-2" d="M267.63,181.26h5.74v4.76h-5.74v-4.76ZM267.63,187.53h5.74v21.78h-5.74v-21.78Z"/>
    <path class="cls-2" d="M274.23,187.53h5.78l1.7,7.85,1.58,7.85,1.66-7.85,1.7-7.85h5.59l-5.51,21.78h-7.05l-5.47-21.78Z"/>
    <path class="cls-2" d="M291.97,203.79c0-3.45,2.5-5.12,6.34-6.82,3.17-1.39,4.32-2.38,4.32-3.85,0-1.11-.83-1.9-2.14-1.9-1.78,0-2.89,1.31-3.05,3.69h-5.15c.28-4.76,3.6-7.89,8.4-7.89s7.53,2.62,7.53,7.3v14.99h-5.63v-1.86c-1.15,1.35-2.81,2.14-4.71,2.14-3.57,0-5.9-2.26-5.9-5.79ZM299.85,205.62c1.07,0,2.1-.48,2.73-1.27v-3.97l.04-2.02c-.51.44-1.15.79-2.02,1.23-2.06,1.11-3.01,1.98-3.01,3.65,0,1.43.87,2.38,2.26,2.38Z"/>
    <path class="cls-2" d="M310.44,181.54h5.74v27.77h-5.74v-27.77Z"/>
    <path class="cls-2" d="M317.83,198.4c0-7.22,3.37-11.38,8.87-11.38,5.11,0,8.52,3.93,8.52,11.42v.48h-11.77c.08,4.68,1.23,6.7,3.29,6.7,1.74,0,2.77-1.47,3.09-4.72h5.27c-.59,5.75-3.53,8.88-8.4,8.88-5.51,0-8.87-4.12-8.87-11.38ZM323.62,195.54h6.1c-.48-3.05-1.47-4.4-3.01-4.4-1.66,0-2.73,1.39-3.09,4.4Z"/>
    <path class="cls-2" d="M336.28,198.44c0-7.1,2.85-11.34,7.41-11.34,2.06,0,3.73.99,4.87,2.9v-8.45h5.78v27.77h-5.78v-2.42c-1.15,1.86-2.81,2.86-4.87,2.86-4.64,0-7.41-4.13-7.41-11.31ZM348.6,198.4c0-4.96-1.15-7.06-3.33-7.06s-3.25,2.1-3.25,7.06,1.11,7.06,3.25,7.06,3.33-2.1,3.33-7.06Z"/>
    <path class="cls-2" d="M363.5,187.53h5.74v2.02c1.03-1.47,2.65-2.46,4.6-2.46,2.1,0,3.68,1.03,4.52,2.7,1.03-1.55,2.81-2.7,4.99-2.7,3.41,0,5.43,2.34,5.43,5.79v16.42h-5.71v-15.83c0-1.39-.75-2.1-1.98-2.1-.83,0-1.55.4-2.06,1.03v16.9h-5.74v-15.83c0-1.39-.71-2.1-1.9-2.1-.87,0-1.62.44-2.14,1.11v16.82h-5.74v-21.78Z"/>
    <path class="cls-2" d="M391.01,203.91v-16.38h5.74v15.55c0,1.51.91,2.38,2.3,2.38.99,0,1.9-.48,2.46-1.23v-16.7h5.74v21.78h-5.74v-1.86c-1.11,1.39-2.77,2.3-4.71,2.3-3.61,0-5.78-2.34-5.78-5.83Z"/>
    <path class="cls-2" d="M408.84,201.41h5.07c.32,2.94,1.51,4.28,3.33,4.28,1.62,0,2.42-.83,2.42-2.06,0-1.82-1.94-2.54-4.12-3.37-2.97-1.11-6.42-2.38-6.42-6.78,0-3.69,2.81-6.46,7.41-6.46,4.95,0,7.84,2.97,8.24,7.69h-4.99c-.32-2.62-1.55-3.61-3.17-3.61-1.35,0-2.14.83-2.14,1.86,0,1.55,1.78,2.22,3.92,3.01,3.01,1.15,6.69,2.54,6.69,7.1,0,3.73-2.93,6.7-7.69,6.7s-8.16-2.66-8.56-8.37Z"/>
    <path class="cls-2" d="M425.95,198.4c0-7.42,3.33-11.38,8.87-11.38,4.79,0,7.92,3.13,8.44,9.24h-5.39c-.32-3.41-1.31-4.92-3.01-4.92-2.06,0-3.21,2.1-3.21,7.06s1.11,7.06,3.21,7.06c1.78,0,2.77-1.63,3.05-5.4h5.39c-.4,6.39-3.53,9.72-8.48,9.72-5.55,0-8.87-3.97-8.87-11.38Z"/>
    <path class="cls-2" d="M444.85,181.54h5.74v27.77h-5.74v-27.77Z"/>
    <path class="cls-2" d="M452.24,198.4c0-7.22,3.37-11.38,8.87-11.38,5.11,0,8.52,3.93,8.52,11.42v.48h-11.77c.08,4.68,1.23,6.7,3.29,6.7,1.74,0,2.77-1.47,3.09-4.72h5.27c-.59,5.75-3.53,8.88-8.4,8.88-5.51,0-8.87-4.12-8.87-11.38ZM458.02,195.54h6.1c-.48-3.05-1.47-4.4-3.01-4.4-1.66,0-2.73,1.39-3.09,4.4Z"/>
    <path class="cls-2" d="M478.39,181.54h5.78v8.41c1.15-1.86,2.81-2.86,4.87-2.86,4.64,0,7.41,4.13,7.41,11.31s-2.85,11.34-7.41,11.34c-2.06,0-3.72-.99-4.87-2.9v2.46h-5.78v-27.77ZM490.71,198.44c0-4.96-1.11-7.06-3.25-7.06s-3.33,2.1-3.33,7.06,1.15,7.06,3.33,7.06,3.25-2.1,3.25-7.06Z"/>
    <path class="cls-2" d="M498.12,203.91v-16.38h5.74v15.55c0,1.51.91,2.38,2.3,2.38.99,0,1.9-.48,2.46-1.23v-16.7h5.74v21.78h-5.74v-1.86c-1.11,1.39-2.77,2.3-4.71,2.3-3.61,0-5.78-2.34-5.78-5.83Z"/>
    <path class="cls-2" d="M516.65,181.26h5.74v4.76h-5.74v-4.76ZM516.65,187.53h5.74v21.78h-5.74v-21.78Z"/>
    <path class="cls-2" d="M524.62,181.54h5.74v27.77h-5.74v-27.77Z"/>
    <path class="cls-2" d="M532.06,198.44c0-7.1,2.85-11.34,7.41-11.34,2.06,0,3.73.99,4.87,2.9v-8.45h5.78v27.77h-5.78v-2.42c-1.15,1.86-2.81,2.86-4.87,2.86-4.64,0-7.41-4.13-7.41-11.31ZM544.38,198.4c0-4.96-1.15-7.06-3.33-7.06s-3.25,2.1-3.25,7.06,1.11,7.06,3.25,7.06,3.33-2.1,3.33-7.06Z"/>
    <path class="cls-2" d="M552.4,181.26h5.74v4.76h-5.74v-4.76ZM552.4,187.53h5.74v21.78h-5.74v-21.78Z"/>
    <path class="cls-2" d="M560.35,187.53h5.78v1.86c1.11-1.39,2.73-2.3,4.71-2.3,3.56,0,5.78,2.34,5.78,5.79v16.42h-5.78v-15.55c0-1.55-.87-2.38-2.3-2.38-.95,0-1.82.44-2.42,1.19v16.74h-5.78v-21.78Z"/>
    <path class="cls-2" d="M578.29,198.32c0-7.02,2.85-11.22,7.41-11.22,2.06,0,3.73.99,4.87,2.86v-2.42h5.78v21.14c0,5.71-3.53,8.33-8.95,8.33-4.83,0-8.16-2.22-8.68-6.46h5.43c.32,1.78,1.39,2.66,3.25,2.66s3.17-1.07,3.17-3.49v-3.05c-1.15,1.82-2.81,2.82-4.87,2.82-4.64,0-7.41-4.05-7.41-11.15ZM590.61,198.28c0-4.88-1.15-6.98-3.33-6.98s-3.25,2.1-3.25,6.98,1.11,6.98,3.25,6.98,3.33-2.06,3.33-6.98Z"/>
    <path class="cls-2" d="M605,203.79c0-3.45,2.5-5.12,6.34-6.82,3.17-1.39,4.32-2.38,4.32-3.85,0-1.11-.83-1.9-2.14-1.9-1.78,0-2.89,1.31-3.05,3.69h-5.15c.28-4.76,3.6-7.89,8.4-7.89s7.53,2.62,7.53,7.3v14.99h-5.63v-1.86c-1.15,1.35-2.81,2.14-4.71,2.14-3.57,0-5.9-2.26-5.9-5.79ZM612.88,205.62c1.07,0,2.1-.48,2.73-1.27v-3.97l.04-2.02c-.51.44-1.15.79-2.02,1.23-2.06,1.11-3.01,1.98-3.01,3.65,0,1.43.87,2.38,2.26,2.38Z"/>
    <path class="cls-2" d="M623.45,187.53h5.78v1.86c1.11-1.39,2.73-2.3,4.71-2.3,3.56,0,5.78,2.34,5.78,5.79v16.42h-5.78v-15.55c0-1.55-.87-2.38-2.3-2.38-.95,0-1.82.44-2.42,1.19v16.74h-5.78v-21.78Z"/>
    <path class="cls-2" d="M641.4,198.44c0-7.1,2.85-11.34,7.41-11.34,2.06,0,3.73.99,4.87,2.9v-8.45h5.78v27.77h-5.78v-2.42c-1.15,1.86-2.81,2.86-4.87,2.86-4.64,0-7.41-4.13-7.41-11.31ZM653.72,198.4c0-4.96-1.15-7.06-3.33-7.06s-3.25,2.1-3.25,7.06,1.11,7.06,3.25,7.06,3.33-2.1,3.33-7.06Z"/>
    <path class="cls-2" d="M668.62,187.53h5.78v2.9c1.11-2.14,2.93-3.29,5.15-3.29h.32v5.55c-.48-.12-.99-.2-1.5-.2-1.59,0-3.09.6-3.96,1.71v15.11h-5.78v-21.78Z"/>
    <path class="cls-2" d="M680.5,198.4c0-7.22,3.37-11.38,8.87-11.38,5.11,0,8.52,3.93,8.52,11.42v.48h-11.77c.08,4.68,1.23,6.7,3.29,6.7,1.74,0,2.77-1.47,3.09-4.72h5.27c-.59,5.75-3.53,8.88-8.4,8.88-5.51,0-8.87-4.12-8.87-11.38ZM686.28,195.54h6.1c-.48-3.05-1.47-4.4-3.01-4.4-1.66,0-2.73,1.39-3.09,4.4Z"/>
    <path class="cls-2" d="M698.94,198.4c0-7.42,3.33-11.38,8.87-11.38,4.79,0,7.92,3.13,8.44,9.24h-5.39c-.32-3.41-1.31-4.92-3.01-4.92-2.06,0-3.21,2.1-3.21,7.06s1.11,7.06,3.21,7.06c1.78,0,2.77-1.63,3.05-5.4h5.39c-.4,6.39-3.53,9.72-8.48,9.72-5.55,0-8.87-3.97-8.87-11.38Z"/>
    <path class="cls-2" d="M717.29,198.4c0-7.42,3.33-11.38,8.95-11.38s8.95,3.97,8.95,11.38-3.33,11.38-8.95,11.38-8.95-4.01-8.95-11.38ZM729.45,198.4c0-4.96-1.11-7.06-3.21-7.06s-3.25,2.1-3.25,7.06,1.15,7.06,3.25,7.06,3.21-2.1,3.21-7.06Z"/>
    <path class="cls-2" d="M734.9,187.53h5.78l1.7,7.85,1.58,7.85,1.66-7.85,1.7-7.85h5.59l-5.51,21.78h-7.05l-5.47-21.78Z"/>
    <path class="cls-2" d="M752.62,198.4c0-7.22,3.37-11.38,8.87-11.38,5.11,0,8.52,3.93,8.52,11.42v.48h-11.77c.08,4.68,1.23,6.7,3.29,6.7,1.74,0,2.77-1.47,3.09-4.72h5.27c-.59,5.75-3.53,8.88-8.4,8.88-5.51,0-8.87-4.12-8.87-11.38ZM758.41,195.54h6.1c-.48-3.05-1.47-4.4-3.01-4.4-1.66,0-2.73,1.39-3.09,4.4Z"/>
    <path class="cls-2" d="M771.61,187.53h5.78v2.9c1.11-2.14,2.93-3.29,5.15-3.29h.32v5.55c-.48-.12-.99-.2-1.5-.2-1.59,0-3.09.6-3.96,1.71v15.11h-5.78v-21.78Z"/>
    <path class="cls-2" d="M785.65,212.4h2.06c1.15,0,1.74-.52,2.06-1.47l.04-.2-6.3-23.2h5.86l3.29,14.2,3.37-14.2h5.66l-6.81,24.47c-.91,3.06-2.81,4.56-5.7,4.56h-3.53v-4.16Z"/>
  </g>
</svg>