<?xml version="1.0" encoding="utf-8"?>
<svg width="20" height="21" viewBox="0 0 20 21" fill="none" xmlns="http://www.w3.org/2000/svg">
    <path
        d="M19.5306 18.9693L14.8365 14.2762C16.1971 12.6428 16.8755 10.5478 16.7307 8.42691C16.5859 6.30604 15.629 4.32265 14.0591 2.88932C12.4892 1.45599 10.4271 0.683083 8.30188 0.731383C6.17663 0.779683 4.15181 1.64547 2.64864 3.14864C1.14547 4.65181 0.279683 6.67663 0.231383 8.80188C0.183083 10.9271 0.955989 12.9892 2.38932 14.5591C3.82265 16.129 5.80604 17.0859 7.92691 17.2307C10.0478 17.3755 12.1428 16.6971 13.7762 15.3365L18.4693 20.0306C18.539 20.1003 18.6218 20.1556 18.7128 20.1933C18.8038 20.231 18.9014 20.2504 19 20.2504C19.0985 20.2504 19.1961 20.231 19.2871 20.1933C19.3782 20.1556 19.4609 20.1003 19.5306 20.0306C19.6003 19.9609 19.6556 19.8782 19.6933 19.7871C19.731 19.6961 19.7504 19.5985 19.7504 19.5C19.7504 19.4014 19.731 19.3038 19.6933 19.2128C19.6556 19.1218 19.6003 19.039 19.5306 18.9693ZM1.74997 8.99997C1.74997 7.66495 2.14585 6.3599 2.88755 5.24987C3.62925 4.13984 4.68345 3.27467 5.91686 2.76378C7.15026 2.25289 8.50746 2.11922 9.81683 2.37967C11.1262 2.64012 12.3289 3.28299 13.2729 4.227C14.2169 5.171 14.8598 6.37374 15.1203 7.68311C15.3807 8.99248 15.247 10.3497 14.7362 11.5831C14.2253 12.8165 13.3601 13.8707 12.2501 14.6124C11.14 15.3541 9.83499 15.75 8.49997 15.75C6.71037 15.748 4.99463 15.0362 3.72919 13.7708C2.46375 12.5053 1.75195 10.7896 1.74997 8.99997Z"
        fill="black" />
</svg>