<?xml version="1.0" encoding="utf-8"?>
<svg width="16" height="16" viewBox="0 0 16 16" fill="none" xmlns="http://www.w3.org/2000/svg">
    <path
        d="M14.8358 14.364L14.3643 14.8354C14.104 15.0957 13.6819 15.0957 13.4215 14.8354L8.00037 9.4142L2.57917 14.8353C2.31887 15.0957 1.89675 15.0957 1.6364 14.8353L1.16499 14.3639C0.904639 14.1036 0.904639 13.6815 1.16499 13.4211L6.58617 8L1.16499 2.5788C0.904639 2.3185 0.904639 1.89638 1.16499 1.63603L1.63639 1.16463C1.89674 0.904282 2.31887 0.904282 2.57917 1.16463L8.00037 6.5858L13.4215 1.16462C13.6819 0.904273 14.104 0.904273 14.3643 1.16462L14.8358 1.63602C15.0961 1.89637 15.0961 2.3185 14.8358 2.5788L9.41457 8L14.8358 13.4211C15.0961 13.6815 15.0961 14.1036 14.8358 14.364Z"
        fill="white" />
</svg>